<?xml version="1.0" encoding="UTF-8"?><svg id="a" preserveAspectRatio="none" xmlns="http://www.w3.org/2000/svg" viewBox="0 0 100 100"><path d="m49.51,12.96h.81c.23.12.43.3.7.36,2.1.51,4.3.48,6.51.17.56-.08.93-.08,1.45.1.68.24,1.53.45,2.3.42,1.08-.03,2.2-.23,3.21-.48,1.01-.26,1.74-.24,2.31.31.41.39,1.05.38,1.69.32,2.56-.26,5.11-.57,7.67-.8.68-.06,1.47.05,2.09.22.82.22,1.55.36,2.47.11.46-.13,1.05-.18,1.55-.14,1.25.09,2.48.35,3.73.34,1.14,0,1.57.33,1.79.85.15.36.2.74.18,1.12-.08,1.49-.38,2.99-.26,4.46.11,1.29-.06,2.53-.6,3.79-.18.43-.21.92-.02,1.34,1.04,2.37,1.74,4.78,1.84,7.24.11,2.72-.03,5.45-.1,8.18-.03.94,0,1.91-.35,2.83-.71,1.9-.34,3.73.62,5.45.53.95.76,1.8.44,2.77-.06.18-.11.36-.1.54.05,1.63.11,3.26.17,4.9,0,.04,0,.08.03.12.87,1.42.39,2.9-.09,4.32-.7,2.1-.27,4.15-.07,6.22.11,1.16.3,2.33.42,3.49.01.12-.15.27-.31.37-.85.52-.72,1.16-.4,1.68.6.96,1.05,1.9.82,2.95-.04.18.1.36.15.54l-.09,1.21c-.38.52-.78,1.04-1.12,1.57-.09.14-.07.32-.03.48.36,1.22-.08,2.36-1.08,3.47-.35.39-.55.82-.76,1.24-.17.35.05.77-.72.99-.11.03-.11.3-.05.44.1.23.37.43.41.66.04.26.05.6-.19.78-.2.14-.9.19-1.2.1-.94-.3-1.77-.14-2.66.1-1.54.4-3.09.66-4.79.55-2.5-.18-4.99-.5-7.56-.22-.86.09-1.76.27-2.59.21-1.7-.13-3.35-.42-5.04-.59-.45-.05-.99.07-1.44.18-.8.19-1.54.51-2.35.64-1.27.19-2.58.27-3.88.39-.56.05-1.15.16-1.69.11-1.08-.09-2.11-.31-3.19-.42-2.42-.24-4.84-.5-7.28-.63-2-.11-4.04-.06-6.06-.03-1.97.02-3.96-.21-5.84.55-2,.8-4.15.74-6.24.27-1.06-.24-2.08-.24-3.23-.12-1.92.21-3.86.27-5.8.4-.26.02-.51.08-.76.12-.14,0-.27,0-.41,0-.73-.17-1.52-.28-2.17-.52-.54-.2-1.04-.51-1.35-.84-.26-.28-.17-.68-.35-1.01-.42-.76-.74-1.5-.26-2.32.48-.82,1.02-1.62.58-2.53-.2-.41.24-.95.07-1.37-.67-1.65.34-3.21.86-4.8.47-1.43.64-2.86.24-4.27-.33-1.17-.36-2.34.05-3.52.13-.37.12-.75.1-1.13-.04-1.19-.91-2.31-.56-3.54.28-.99.41-1.99.68-2.98.19-.69.52-1.38.78-2.06.05-.14.15-.27.17-.41.19-1.49.06-2.98-.66-4.38-.78-1.49-.4-2.89.27-4.36.29-.63.25-1.31.24-1.96,0-.42-.4-.83-.36-1.24.12-1.16.34-2.3-.48-3.41-.16-.22.2-.63.47-.91.35-.34.95-.61,1.25-.96.2-.24.08-.56.1-.95-.5.14-.73.21-1.01.29-.78-1.02-1.04-2.03-.63-3.14.23-.61.45-1.3.18-1.86-.85-1.8-.4-3.61.06-5.4.32-1.24,1.36-2.43.7-3.72-.34-.67-.37-1.42-.87-2.03-.43-.51-.7-.99-.71-1.56-.01-1.48-.39-2.91-1.5-4.22.01-.2.03-.4.04-.6,1.26-.81,2.53-1.62,3.87-2.48,1.31.92,2.48.68,3.63,0,.17-.1.42-.15.58-.25,1.2-.75,2.67-.67,4.18-.66,2.16.02,4.33-.08,6.49-.07,1.56,0,3.16-.28,4.64.36.58.25,1.74.17,2.56.05.7-.1,1.24-.27,1.74.13.1.08.33.1.52.16.36-.31.67-.6,1.03-.87.15-.11.5-.24.63-.21.91.24,1.68-.07,2.49-.23.33-.07.76-.15,1.02-.08,2.1.55,3.86-.08,5.63-.68Z"/></svg>