<?xml version="1.0" encoding="UTF-8"?><svg id="a" preserveAspectRatio="none" xmlns="http://www.w3.org/2000/svg" viewBox="0 0 100 100"><path d="m9.74,49.09v-.81c.13-.23.31-.43.38-.7.53-2.1.5-4.3.18-6.51-.08-.56-.08-.93.1-1.45.25-.68.47-1.53.44-2.3-.04-1.08-.24-2.2-.51-3.21-.27-1.01-.25-1.74.32-2.31.41-.41.4-1.05.33-1.69-.27-2.56-.6-5.11-.83-7.67-.06-.68.05-1.47.23-2.09.24-.82.38-1.55.12-2.47-.13-.46-.18-1.05-.15-1.55.09-1.25.36-2.48.36-3.73,0-1.14.34-1.57.89-1.79.37-.15.78-.2,1.17-.18,1.56.08,3.12.38,4.67.26,1.35-.11,2.65.06,3.96.6.45.18.97.21,1.4.02,2.47-1.04,5-1.74,7.57-1.84,2.84-.11,5.7.03,8.55.1.99.03,2,0,2.96.35,1.98.71,3.9.34,5.7-.62.99-.53,1.88-.76,2.89-.44.19.06.38.11.56.1,1.71-.05,3.41-.11,5.12-.17.04,0,.09,0,.12-.03,1.49-.87,3.03-.39,4.52.09,2.2.7,4.34.27,6.5.07,1.22-.11,2.43-.3,3.65-.42.12-.01.29.15.39.31.55.85,1.21.72,1.76.4,1-.6,1.99-1.05,3.08-.82.19.04.38-.1.57-.15l1.26.09c.55.38,1.09.78,1.64,1.12.15.09.34.07.5.03,1.28-.36,2.47.08,3.63,1.08.4.35.86.55,1.3.76.36.17.8-.05,1.04.72.03.11.31.11.46.05.24-.1.45-.37.69-.41.27-.04.63-.05.81.19.15.2.2.9.1,1.2-.31.94-.14,1.77.1,2.66.42,1.54.69,3.09.57,4.79-.18,2.5-.52,4.99-.23,7.56.1.86.28,1.76.22,2.59-.14,1.7-.44,3.35-.62,5.04-.05.45.07.99.19,1.44.2.8.53,1.54.67,2.35.2,1.27.29,2.58.41,3.88.05.56.17,1.15.12,1.69-.1,1.08-.32,2.11-.43,3.19-.25,2.42-.52,4.84-.66,7.28-.11,2-.06,4.04-.04,6.06.02,1.97-.22,3.96.57,5.84.84,2,.77,4.15.28,6.24-.25,1.06-.25,2.08-.12,3.23.22,1.92.28,3.86.42,5.8.02.26.08.51.12.76,0,.14,0,.27,0,.41-.17.73-.29,1.52-.54,2.17-.21.54-.53,1.04-.88,1.35-.3.26-.72.17-1.05.35-.79.42-1.57.74-2.43.26-.86-.48-1.7-1.02-2.64-.58-.43.2-.99-.24-1.43-.07-1.72.67-3.36-.34-5.02-.86-1.5-.47-2.99-.64-4.46-.24-1.23.33-2.44.36-3.68-.05-.38-.13-.79-.12-1.18-.1-1.25.04-2.42.91-3.7.56-1.03-.28-2.08-.41-3.11-.68-.72-.19-1.44-.52-2.16-.78-.14-.05-.28-.15-.43-.17-1.56-.19-3.12-.06-4.57.66-1.55.78-3.02.4-4.55-.27-.66-.29-1.37-.25-2.05-.24-.44,0-.87.4-1.3.36-1.21-.12-2.41-.34-3.56.48-.23.16-.66-.2-.95-.47-.36-.35-.63-.95-1-1.25-.25-.2-.59-.08-.99-.1.15.5.22.73.3,1.01-1.07.78-2.12,1.04-3.28.63-.64-.23-1.36-.45-1.95-.18-1.88.85-3.77.4-5.65-.06-1.3-.32-2.54-1.36-3.89-.7-.7.34-1.48.37-2.12.87-.54.43-1.04.7-1.64.71-1.54.01-3.04.39-4.41,1.5-.21-.01-.42-.03-.63-.04-.85-1.26-1.69-2.53-2.59-3.87.96-1.31.71-2.48,0-3.63-.1-.17-.16-.42-.26-.58-.78-1.2-.7-2.67-.69-4.18.02-2.16-.08-4.33-.08-6.49,0-1.56-.29-3.16.38-4.64.26-.58.18-1.74.05-2.56-.11-.7-.28-1.24.14-1.74.08-.1.11-.33.16-.52-.32-.36-.63-.67-.91-1.03-.11-.15-.25-.5-.22-.63.25-.91-.07-1.68-.24-2.49-.07-.33-.15-.76-.08-1.02.58-2.1-.08-3.86-.71-5.63Z"/></svg>