<?xml version="1.0" encoding="UTF-8"?><svg id="a" preserveAspectRatio="none" xmlns="http://www.w3.org/2000/svg" viewBox="0 0 1920 1080"><path d="m1733.2,303.3h-10.86c6.07-4.38,10.03-3.9,10.86,0Zm67.91,321.49c-1.52,2.95,4.86,3.34,6.71,5,2.82-5.36-3.61-6.12-6.71-5Zm-16.57-12.67c-2.95,5.54-2.68,12.66-6.54,17.88-2.96,4.98,3.69,6.08,3.68,10.66,3.39,18.43-15.47,37.83-3.63,54.01-.72,2.3-2.04,4.32-1.56,5.41,2.37,11.42-14.52,4.23-19.85,9.15,5.15,4.06-2.27,12.38-7.75,7.93-7.72,4.5.86,11.8-3.17,15.31-2.65,1.08-7.21.5-4.27,6.15-2.29,1.58-3.69,1.26-5.86-.62-2.97,11.02,1.09,12.73,10.38,13.89-.81,7.85-34.66,9.34-9.51,13.94,3.01,1.03,7.36,1.23,6.06,7.51-4.28,1.22-13.24-1.86-12.73,6.01,31.02-12.71,5.92,26.51-16.24,7.95-8.68,12.14,19.83,6.67,25.16,5.88,13.73,5.24-15.14,7.38-43.45,8.01,1.28,1.53,2.26,3.43,2.94,5.76-5.74-.92-29.28,7.48-19.77-3.62-5.99.83-5.86,2.05-4.18,7.66-13.24-2.19-4.32-5.2,2.58-9.58-9.46.01-17.57-.12-22.2-.34-1.41,2.29-3.25,3.3-5.49,1.28-.25,2.79-.45,5.08-.62,7.08-.8-.28-1.61-.56-2.43-.84.4,2.99,1.36,6.56,1.89,10.24,4.61-.97,6.25,1.95,8.95,7.28-2.53,1.55-5.68,1.53-8.93,1.02-.31,1.56-.84,3.06-1.7,4.46,4.38.36,8.77.57,13.49-.63,5.1-.23,10.48.34,14.65-4.22,8.44-1,17.5,1.22,26.42,1.42-1.07,2.13-2.13,4.26-3.26,6.52,16.71.75-12.44,2.78-17.41,5.32.02,5.18-4.16,3.65-6.5,4.89-6.04,1.71-9.92,6.79-16.53,4.89-1.34-.09-3.67-.25-3.89.34-2.77,6.66-7.97-.11-12.69,1.47.29,4.37,1.56,10.07,3.9,2.62,1.29,2.08,2.18,3.52,3.3,5.33.91-4.44,2.78-6.17,6.41-3.22,8.59-1.35,17.39-6.31,26.9-4.54,5.78-4.97,9.38-8.23,17.55-7.13-2.76,6.28,2.23,4.67,3.15,8.28-5.97,1.66-16.97-1.81-17.7,7.79,4.64-4.93,10.43-.45,3.26,1.94,1.07.97,1.91,1.72,2.84,2.56-1.08.86-1.83,1.46-2.74,2.18,5.48-.38,10.66-.73,15.96-1.1-.12,5.71-2.62,7.59-6.17,6.76-3.23,8.19-8.74,10.84-15.97,9.93,2.34,15.73-18.78,7.61-27.15,12.59-12.52,5.27-25.61,4.52-38.42,3.58-2.19,4.47-5.48,3.04-8.74,2.29-4.04-.93-8.04-3.66-12.19.14-9.07-.26-19.11-1.52-28.42-1.7,4.48-5.98,18.75-1.51,25.67-9.68-2.23-7.2-12.05-12.54-5.17-4.86-2.71,5.29-5.09,10.65-11.83,6.73-8.3.71-21.54,7.58-18.32-6.95-3.44,1.4-7.21,1.71-8.73,3.88-7.73,8.87-22.06.95-32.23,1.66-4.87-.65-8.2-.26-9.97,5.75-3.94,9.57-11.31,3.6-8.02-5.5-4.61.87-8.59,1.62-14.11,2.67,2.79,1.76,4.47,2.81,7.59,4.78-10.08.95-17.36,4.93-17.4-8.67q-2.33,2.77.41,10.23c-8.5,2.32-4.84-7.56-5.54-13.65-11.72.44-18.6.02-14.9,13.77-9.19,2.28-3.97-7.71-4.23-13.98-1.88,0-3.15.33-4.2-.05-10.14-7.2-6.77,12.47-14.08,5.39-2.59-5.7-3.16-6.5-8.15-5.7-3.79-2.25-5.39,3.07-8.56,2.59-2.3,5.18,6.08,3.17,8.93,3.51-8.05,11.45,29.03,5.7,11.52,9.51-10.76-2.58-38.61,8.71-40.95-6.55-6.74-5.15,5.82-.82,8.73-1.39,22.96-6.62-10.01-23.67-10.79-2.46-7.61-6.15-19.28-6.12-24.61-.4,2.4.86,4.57,1.63,6.83,2.44-1.79,2.95-1.75,2.81-8.62.38-4.9-1.74-2.3-5.79-3.33-9.79,6.69-1.23,19.26,2.8,21.87-2.88-6.71,3.2-12.63-6.32-19.72-.67-6.46-6.22-21.28-3.97-30.37-5.31-6.69,5.82-9.97-4.12-18.43,1.31-9.03,8.8-9.98-3.74-20.31,3.41-1.61,3.24,5.56,4.25-1.07,8.97,5.13,2.53,5.27,8.25.86,14.14-4.09-2.05-7.73-3.96-12.15-4.48,2.35-1.03,4.73-2.12,7.08-3.1-1.56-5.6,1.79-15.51-5.86-14.8-8.2.83-15.85-6.68-24.1-1.43-3.8-.33-6.73-3.3-11.65-5.37,5.41-1.21,11.92-5.02,9.83-11.36-6.6,6.27-9.38-9.84-15.38-3.92,11.29,22.4-20.08,17.72-33.63,20.32,6.97,11.55-16.56,13.06-8.09.61-17.65,2,1.74,6.51-13.78,7.21,3.49,12.48-4.06,14.79-.65,17.94-2.12,1.6-4.11,1.06-6.11-.42-6.52-5.79-43.41-1.98-22.53-8.41-2.37-2.1-3.96-3.51-5.92-5.25,6.91-1.74,13.98,3.35,20.54-3.2-21.52-3.75-1.65-6.29,7.23-5.2-8.84-4.13-23.91-5.92-33.96-1.12,13.9,1.47-.99,10.97-11.23,3.08,9.93-9.35-9.51-5.7-11.13-1.41,4.88,2.27-6.22,6.51,4.23,8.48,7.87-1.5,3.2,4.51,4.06,10.36-21.07-5.32-43.11-.85-65.23-2.33-59.03,2.54-121.56-7.74-178.43,9.03-2.55-6.15-3.5-6.33-8.97-1.72-2.16-5.08-10.68-3.38-14.23-2.14-25.52,1.89-51.8-2.75-77.65-1.6,1.15-2.42,2.19-4.62,2.77-5.85,6.14,2.73,40.14.05,28.6-7.4,6.24-2.78,3.26-8.23-.74-3.08-.48,7.34-6.37,2.62-10.35,2.51.12,2.24.21,3.73.36,6.51-1.96-2.52-3.1-3.99-4.69-6.04-.19,4.63-7.33,8.15-8.65,4.15,9.55-4.62-9.17-2.23-13.97-2.76,6.16,19.97-21.38,13.65-32.16,15.08-11.72-.28-26.38,5.83-36.41-1.42,6.35-1.46,4.23-3.66,4.71-7.76,2.41-3.45.68-5.37-1.9-8.3-1.9,7.48-9.45,14.98-10.35,3.31-13.04,2.56-8.76,11.68-21.98,10.16,1.5-4.34.13-9.3,5.93-9.49-.75.85-1.49,1.7-2.24,2.55,13.8-1.81-9.17-5.84-13.14-5.42-1.18,6.78-5.79,5.5-9.86,5.94-5.5,2.02-11.44.42-15.11-4.03-9.33,9.51-6.71-8.76-15.95-.56,6.2,5.65,12.26,11.16,18.01,16.4-11.43,4.71-156.21,19.12-89.92-1.91-9.16-5.98-13.71,3.87-17.25,1.46-8.85-4.25-15.33.6-23.68-7.16.62,1.16,1.17,2.18,1.8,3.34-39.01,2.68-16.19-7.62-31.19-8.94-7.57,2.1-8.62,5.89-12.05,11.45-.08.09-.17.21-.25.31-6.58-.83-14.5-2.38-3.07-5.48-3.74-2.12-5.52-4.45-1.93-7.48-6.7-.11-14.14-4.4-16.94,7.25-2.95-4.16-1.82-10.22-8.27-6.66,2.83,1.78-.8,4.15-2.08,7.99,19.44-.98,7.61,7.08-2.74,4.83-2.31-5.61-3-9.94-6.68-13.92-8.35,11.72.43,14.41-8.94,14.81-5.95-1.06-16.31,2.97-19.06-4.07,30.5-12.54,5.3-4.55-9.96-10.13,10.43-4.65,5.16-17.77,17.21-17.55-5.88-2.08-11.81-4.17-17.74-6.27.14,1.69.27,3.24.45,5.42-4.93.17-9.15-4.24-13.25-3.96-2.22.63-3.52,1.65-3.92-1.17.7-4.35,8.42-2.07,7.45-7.69-.06-.9,1.17-1.9,2.14-3.35.56,2,.9,3.21,1.38,4.94,8.27-16.75-18.25-2.38-18.92-10.92,4.03.42,6.48-5.65,11.68-1.66,12.07.89-1.45-6.68-6.31-7.21,10.05-15.05-12.69-12.18-12.21-1.25-.57,7.46-.87,7.69-7.49,5.65,1.62-20.92-17.51-13.02-14.47,2.82-3.65-4.8-15.6-8.3-8.2.98,9.18-.05,22.93,3.5,4.65,4.68-2.49,12.76-3.76,8.97-15.01,6.46-5.58.03-6.71-7.93-12.14-2.48-6.51.59-.87-6.1,2.92-6.33-3.58-2.88-5.51-6.97-8.47-10.84q-3.14,7.9-10.07,4.88c1.73-3.12,4.45-6.71,4.04-10.42-27.77-6.25-9.49-7.31,8.17-8.82-7.36-6.06-13.53,2.38-19.09-.87,1.34-4.86,2.16-6.78,7.6-5,2.11-1.66-.1-3.94-1.78-5.75,4.82-2.83,8.06-5.95,5.28-12.06.96-5.17.66-9.06-4.79-9.4-6.95,1.38-9.96-2.37-9.54-10.34h17.53c-1.15-2.01-1.87-3.27-2.59-4.53,6.24,4.03,20.58,10.34,24.22,1.7-3.51-3.46-8.54-.31-13.02-.3.48-8.36,7.77-1.71,12.84-3.65-5.86-7.91-2.82-16.83-4.92-24.59-9.4,2.45-13.29,11.87-4.48,13.09-6.28,13.52-20.32,20.06-18.84-2.11-3.07-11.8-10.38-7.68-9.43-22.65-12.41,4.39,4.74,10.72-6.72,18.5-3.84-6.61-16.31-23.81-.44-23.91,9,.07,9.35-8.7,2.21-12.8,2.16-.63,4.43-1.3,7.22-2.11-8.28-6.33,2.12-6.96,3.91-11.78,2.3-10.51-10.12-1.22-11.3-6.82,3.72-2.83,7.56-.64,9.85-6.41-10.05-1.08-7.63-5.12-5.57-12.94-6.72-5.1-2.54-12.76-5.01-19.69-5.08-2.35-20.09,2.91-18.87-7.25,6.01-11.56,17.83-7.67,24.17-19.32-7.19-.56-11.38,10.08-17.66,4.86,7.79-3-.65-9.55-1.74-14.35-2.37-8.75-9.49-4.07-15.17-5.7-1.25-5.29,3.91.69,3.99-1.83-7.79-2.75-24.15-14.84-5.93-8.14,17.13,15.12,1.45-37.16-10.95-18.35,22.33,6.97.31.06-3.06,13.09,4.4,4.99-1.66,7.79-4.24,11.68-.85-7.16-5.55-1.11-10.15.27,3.61,1.01,6.28,1.75,9.15,2.54-3.49,5.05-19.44,8.01-18.82-.46,3.58-11.11-3.61-15.09,6.97-27.06-2.4-1.08-4.22-1.91-7.38-3.33,4.39-1.01,7.26-1.67,9.94-2.29-2.13-2.16-4.09-4.15-6.77-6.87,6.54-1.46,11.04-7.33,15.88-1.06-15.18,3.46,25.06,4.7,31.41,13.28,3.94-26.67-41.02-3.49-41.23-26.94-5.24-6.76,3.59-25.03,8.34-11.49,23.39,7.17,2.32-16.4,5.56-1.26-4.41-1.19-4.84-8.43-8.29-9.7-8.25-2.34-12.43-11.7-7.15-21.33,2.95-5.54,2.68-12.66,6.54-17.88,2.96-4.98-3.69-6.08-3.68-10.66-3.39-18.43,15.47-37.83,3.63-54.01.72-2.3,2.04-4.32,1.56-5.41-2.37-11.42,14.52-4.23,19.85-9.15-5.15-4.06,2.27-12.38,7.75-7.93,7.72-4.5-.86-11.8,3.17-15.31,2.65-1.08,7.21-.5,4.27-6.15,2.29-1.58,3.69-1.26,5.86.62,2.97-11.02-1.09-12.73-10.38-13.89.81-7.85,34.66-9.34,9.51-13.94-3.01-1.03-7.36-1.23-6.06-7.51,4.28-1.22,13.24,1.86,12.73-6.01-31.02,12.71-5.92-26.51,16.24-7.95,8.68-12.14-19.83-6.67-25.16-5.88-23.25-8.88,75.68-8.85,87.15-7.69,16.85-.25-12.35-30.46,17.12-38.3,5.56-3.04,10.7-13.26,10.3-19.92-8.14-18.79,9.13-32.74,7.03-51.02-1.05,1.25-2.09,2.51-3.5,4.2-.54-2.59-.96-4.63-1.6-7.75-5.89,9.92-1.07-5.61-14.98-6.13,10.35-.45,7.6-10.36,18.89-7.04-4.06-6.41-17.46-12.01-11.41-17.61-6.15-6.02-3.5-10.49,3.16-12.52,25.17,1.32,50.23-2.4,75.37-2.11,5.4.82,17.07-3.96,19.21,1.31-6.1,1.81-36.85,1.54-19.6,12.49-1.87,1.49-2.87,2.29-4.27,3.4,3.69,1.31,4.47,1.61,8.21,3.23-7.07,3-12.16,1.47-14.62-3.53-2.73,6.38-11.37,3.32-17.4,4.29,6.7,8.82,25.5,1.25,35.88,2.69-6.49-6.85-1.83-17.13,7.63-13.53-2.28,3.3-3.65,5.28-5.28,7.64,2.5.36,4.2.6,5.87.84-.18,5.67,0,5.84,4.79,4.7-1.86-6.65,4.53-5.88,8.17-7.82-15.95-14.74,39.09-4.58,46.96-10.91-11.74-11.16,6.42-3.39,8.12,4.92,6.76-3.56,12.8-6.73,19.47-10.24-.59,2.09-1.03,3.61-1.48,5.2,13.33-.14-7.4,6.59-13.73,5.8,1.83,5.15,11.38,4.71,7.49,12.58,5.02.18,9.11-.62,13.63.77.12-4.85-2.11-9.08-3.59-13.54,5.16-3.84,11.65,9.26,14.53-1.54-3.43-.72-7.16-1.51-11.33-2.39q2.94-4.52,8.7-.83c1.72-2.88,1.74-14.68,5.89-9.23-6.64,7.38,9.54,12.86,10.28,2.91,4.73,7.96,11.09,10.86.84,11.05,2.89,3.96,12.68,18.46,7.54,7.05,2.32-7.73,2.73-16.57,3.74-23.86,3.67-2.89,12.91,5.27,7.46,7.87,6.41,2.82,12.81,5.64,20.62,9.07-13.47,3.9-.45,4.67,7.25,4.9-8.56-8.61.22-5.41,1.13-11.61-14.57.73-5.99-11.82-2-4.51,2.09-6.42,5.59-4.31,8.94-4.53,6.51-17.23,9.97,1.85,20.91.55-.03-.33-.07-.66-.1-.98,3.31,3.91,4.02,1.44,6.31-2.4,3.12,7.81,10.13,3.77,15.56,5.27,1.48-.02,3.75-6.32,4.46-6.93,6.53-.22,9.4,7.62,15.38,4.04-1.11,1.34-2.02,2.43-3.45,4.14,5.94.38,10.2,2.04,14.45-1.83,7.39.48,14.41,1.3,18.97,7.65-1.24,1.41-3.96,4.26-4.39,4.99,10.58,5.02,3.34,7.28-3.85,9.61,10.96,3.86,29.84.03,43.29,1.34-3.38-4.53.07-6.6,2.69-2.12.48,5.04,3.55,4,6.62,4.1,4.43-11.96-21.51-6.33-28.67-11.1.34,2.66.59,4.52.9,6.95-3.55-.39-6.65-.73-9.88-1.08,4.35-17.52,20.94-8.82,33.02-10.36,7.49-2.8,14.04-1.42,20.97,2.67-1.89-10.08,29.87-.64,15.57,2.15,18.7,4.97,7.35-1.33,18.27-5.38-1.15,3.98-2.87,5.02-1.84,7.83,4.28-5.32,8.86-2.67,13.3-1.94,4.97.83,9.91,2.22,13.17-3.57,4.97,3.65,4.93,3.52,10.91,1.31,8.84-5.16,7.72,6.23,14.77,6.2,5.53-2.62,13.1-.52,16.22-8.65,5.55,10.73,10.69,11.8,18.64,7.37-1.19-1.45-2.91-3.78-3.31-5.47,5.86.4,11.11-2.39,8.36,6.05,3.46.39,9.32,2.1,9.86.92,2.2-4.79,7.04-2.96,9.5-6.72q.7,8.59,6.42,4.96c18.62,4.63,37.84-4.08,55.02,5.26,4.63,1.71,10.03,2.19,14.63.95,6.8,6.43,8.77.35,11.02,3.46-.2,5.69,2.89,3.22,5.39,2.8,8.37-2.65,16.46,9.37,23.87,2.69-2.72-4.44,6.37-5.8,7.68.07,1.69,4.43,9.74,6.22,13.77,4.06-10.32-5.01,4.36-2.97,8.8-3.35-2.27-7.29-17.8-.92-17.9-14.21,1.85.66,3.81.87,3.91,1.46,1.68,9.67,13.07,7.85,14.07-.33-10.22-2.88-20.78-2.49-30.24-6.05-9.47-7.14-12.31-4.26-21.64-5.06,5.16-5.01,9.07-7.43,14.82-4.54,5.22,1.97,11.73-.88,15.99,5.54.72,1.09,5.36,4.3,8.06.13,6.1-8.46,15.15.22,22.66.7,13.19-.73,28.55.09,41.08,4.01,11.46,5.05,1.17-8.56,27.12,1.46,11.14.8,8.02-6.77,19.28-2.61,11.78,6.78,8.83,1.05,19.45-.97,17.83,2.33,37.45,2.18,54.6,5.4,3.26,4.95,6.57,2.69,10.32,1.47-.61-.96-1.04-1.63-1.71-2.67,31.89,2,63.73,7.47,95.04,10.6,7.24-3.31,9.37-2.27,12.42,6.76,2.39-6.9,6.01-8.9,11.43-4.63,2.69,3.23,1.73,9.31,7.97,4.93,9.25-4.2,17.31,8.44,25.39,4.75,6.64-9.12,11.5,1.92,18.22,4.02,9.73,3.12,15.62-6.26,17.91,1.36,7.01-3.76,13.74-3.71,20.54-.25.91.46,2.65.2,3.46-.48,5.49-5.32,22.61-2.83,17.41,5.66,9.14-1.8,13.42-7.2,22.84-2.19,8.38,2.75,19.16-2.08,25.15,7.26,8.59,3.07,12.02-10.06,17.79,4.63,1.09-5.6,3.97-6.74,7.99-5.01.71,7.17.63,6.99,6.85,3.76,3.8-1.97,6.91-.52,9.65,3.09,6.08,7.77,15.3,1.67,23.45,3.08,1.79,5.06,2.92,5.63,9.52,3.82,13.96,1.93,27.8,8.83,40.52,15.62,13.79,7.38,15.65,8.24.75,9.11,2.12,1.31,4.39,3.3,6.49,5.7,1.94-2.83,4.96-.51,12.68,1.21,5.58-.03,6.71,7.93,12.14,2.48,6.51-.59.87,6.1-2.92,6.33,3.58,2.88,5.51,6.97,8.47,10.84q3.14-7.9,10.07-4.88c-1.73,3.12-4.45,6.71-4.04,10.42,27.77,6.25,9.49,7.31-8.17,8.82,7.36,6.06,13.53-2.38,19.09.87-1.34,4.86-2.16,6.78-7.6,5-2.11,1.66.1,3.94,1.78,5.75-4.82,2.83-8.06,5.95-5.28,12.06-.96,5.17-.66,9.06,4.79,9.4,6.95-1.38,9.96,2.37,9.54,10.34h-17.53c1.15,2.01,1.87,3.27,2.59,4.53-5.13-3.31-15.73-8.16-21.36-4.98,1.33,1.76,2.37,3.42,2.95,4.78,2.36-.32,4.86-1.19,7.22-1.19-.3,5.27-3.32,4.57-6.78,3.83-.37.97-1.87.98-4.85-.48-.42.06-.82.15-1.22.3,5.86,7.91,2.82,16.83,4.92,24.59,7.84-2.04,11.84-8.93,7.84-11.87-.29.65-.69,1.28-1.24,1.86-.66-1.12-1.25-2.11-1.8-3.03-.11-.02-.21-.04-.32-.06.04-.09.09-.18.13-.27-1.32-2.22-2.35-3.98-3.2-5.82,1.83-2.93,4.63-1.71,6.08.91,6.88-9.6,17.1-11.8,15.82,7.29,3.07,11.8,10.38,7.68,9.43,22.65,1.22-.43,2.14-.88,2.85-1.35,1.73,2.63,3.96,4.88,6.58,6.6-.69.1-1.43.16-2.27.16-9-.07-9.35,8.7-2.21,12.8-2.16.63-4.43,1.3-7.22,2.11,8.28,6.33-2.12,6.96-3.91,11.78-2.3,10.51,10.12,1.22,11.3,6.82-3.72,2.83-7.56.64-9.85,6.41,10.05,1.08,7.63,5.12,5.57,12.94,6.72,5.1,2.54,12.76,5.01,19.69,4.68,2.16,17.8-2.13,18.86,5.15-.19,1.01-.36,2.03-.52,3.05-6.15,10.4-17.48,7.05-23.64,18.37,7.19.56,11.38-10.08,17.66-4.86-7.79,3,.65,9.55,1.74,14.35,1.34,4.96,4.21,5.61,7.48,5.53.95,2.6,2.07,5.18,3.32,7.76-4.61,3.52,4.56,29.19,13.76,24.23,1.45,1.9,3.01,3.69,4.7,5.33-9-1.82-20.92-4.29-24.13-8.63-3.94,26.67,41.02,3.49,41.23,26.94,5.24,6.76-3.59,25.03-8.34,11.49-23.39-7.17-2.32,16.4-5.56,1.26,4.41,1.19,4.84,8.43,8.29,9.7,8.25,2.34,12.43,11.7,7.15,21.33Zm-1552.17-5.94c-2.99-5.66-5.91-6.52-12.43-3.89,4.36,1.37,8.05,2.52,12.43,3.89Zm-1.65-16.88c1.76,2.08,3.33,3.95,4.92,5.83,6.46-3.95-.63-9.02-4.92-5.83Zm39.87,14.73c-2.22-7.34-4.06-8.82-8.26-7.6,1.64,4.4,1.36,9.93,8.26,7.6Zm125.37-412.38c7.63-3.04,14.4-2.36,21.58-3.87,8.48,6.31,16.38-2.76,25.2-.09-2.92-5.21-13.58-6.01-18.95-5.38-9.06,6.65-16.17-5.48-27.83,9.33Zm-92.31,440.95c2.22-6.57-7.47-12.83,1.16-14.91-12.13-23.46-11.87,29.83-1.16,14.91Zm9.74,50.78c.07-2.15,2.46-8.37-5.09-2.92-5.12,1.54-12.09-2.48-15.01,5.25,6.86,3.18,13-.85,20.1-2.33Zm21.78,26.66c-9.21-.47-12.15-11.64-22.82-4.56,9.77,8.69-3.35,2.82-1.98-1.96-9.01-.68-7.82,9.51-1.96,13.48,7.62-2.95,23.43-.49,26.75-6.96Zm-20.15,125.3c-7.2,4.1.11,8.28,2.9,13.97.2-5.92,4.3-13.71-2.9-13.97Zm46.35-14.45c-2.6-1.36-4.01-1.58-4.51-2.43-3.37-5.84-9.59-4.59-14.3-7.03-4.31,5.55-5.9-3.03-10.49-1.2,1.29-2.79,1.91-4.12,2.73-5.91-9.71-3.92-2.4,21.71-15.92,13.04,9.9-6.29-10.4-7.55-5.85-17.66.09-.98-1.77-4.76-3.27-3.29.51,5.69-2.76,13.99,4.74,14.28-6.52,14.51-2.03,14.04,10.16,15.22,3.01.47,4.24-5.19,7.8-2.57,2.5-4.73,4.52-.63,7.06.96.13-3.15.68-5.14,1.43-7.97,2.66,3.61,3.69,4.64,2.18,10.08,5.98-1.81,11.38-3.44,18.23-5.52Zm8.77-12.04c-.23,4.54-7.26,13.27.32,13.87-.99-4.06,4.39-13.71-.32-13.87Zm28.42-27.07c-6.23,6.29,3.84,8.84,4.06,1.1.98-7.49-16.05-7.14-15.31,1.39-5.2-12.12-13.24-5.18-22.26-7.54-2.82-.17-5.65-.04-8.94-.04-2.84-8.19-10.76-1.5-16.08-4.17,1.52-1.54,6.39-8.09,2.65-5.55-10.64-8.17-13.03,7.54-2.3,10.87-7.24,1.95-4.72,7.39-7.01,13.72,9.51-2.9,24.62,3.56,30.52-7.07-.81,4.94,1.07,6.62,4.51,4.44,2.46-3.3,4.4-3.03,6.83-.09,5.22.72,10.74-2,16.55-2.76-.08-1.12-.21-3.09-.39-5.64,2.38.44,4.47.82,7.17,1.32Zm10.18,72.11c-3.03-8.11-7.48,1.44-12.48,2.19,4.28-.81,9.57,5.35,12.48-2.19Zm3.82-6.06c-1.92-4.48-5.94-18.45-9.64-7.4,4.51.69,1.44,11.45,9.64,7.4Zm11.38-8.69c-1.78,1.82-3.55,3.63-5.33,5.45,2.33.79,4.65,1.57,6.98,2.36-.54-2.55,1.49-7.44-1.65-7.81Zm3.03-52.59c-2.31-2.74-.14-6.37-.17-10.29-5.93,1.36-11.89,2.73-18.29,4.2,2,2.02,5.9,3.93-.45,7.17,5.15,3.12,12.87-1.24,18.91-1.08Zm23.49,87.11c-35.67-9.3-19.53,21.68-14.47,15.52,11.15-4.37,6.46-8.37,14.47-15.52Zm176.89-81.25c.57,5.8,9.26,3.28,6.69-1.39-2.23.46-4.46.93-6.69,1.39Zm-24.57-605.5c3.15,2.61,6.31,5.23,9.47,7.85-11.5,1.94,2.65,6.35,6.54,3.62-5.8-4.76-3.09-7.1,1.61-8.8-5.23-6.4-11.77-1.19-17.63-2.67Zm2.81,593.17c.77-3.01,1.53-5.99,2.45-9.58-8.91-3.8-10.19,9.79-2.45,9.58Zm-52.11,18.32c5.34,1.2,19,5.2,18.56-4.3-2.26-2.21-2.27,1.5-3.36,3.96-3.13-4.7-12.71-3.11-15.2.34Zm1.95,15.3c2.29-.86,4.57-1.73,6.92-2.62-2.44-5.38-2.92-5.26-6.92,2.62Zm-3.44-29.74c2.58,14.3,25.59,5.92,6.2,3.49,15.19-5.41,2.67-6.15-6.2-3.49Zm-14.83,1.42c-1.85-5.23-14.81-5.35-12.61,2.68.2,3.8-2.65,6.34-4.32,9.88-5.07-2.89-5.19,6.11,3.9,7.74-5.83,7.28,5.71,12.86,12.57,6.43-1.57-2.09-2.87-3.8-4.16-5.52,1.43-.48,2.85-.96,5.52-1.85-4.72-5.02-11.51,1.84-14.98-4.02q1.75-5.95,8.51-1.04c1.98-4.83-3.46-12.94,5.57-14.29Zm-49.67-587.51c13.24,6.38,31.47-2.2,46.03.96,9.67-8.16-6.91-7.81-12.92-7.31.82-1.79,1.47-3.22,2.86-6.26-5.02,1.62-9.49-.28-11.62,5.15-19.7,9.63-10.99-14.98-24.36,7.47Zm4.52,599.07c-3.23,1.91-5.15,3.05-7.07,4.19,4.94,3.4,8.04,2.75,10.89-2.6-5-.91-1.75-3.64-.97-6.1-5.14-3.29-11.7,1.42-2.84,4.52Zm-33.27-44.99c7.15,10.99,12.71-3.74,22.73,4.06,1.33-2.53,2.47-4.7,3.97-7.57-8.63,3.16-20.67.36-26.7,3.51Zm7.37,15.44c-1.27.49-2.21.85-4.52,1.73,8.88.27,8.35,3.93,6.69,12.06,4.14,3.63,9.7-14.06.49-13.47q-2.01-5.4-6.07-3.86c1.16,1.2,2.21,2.3,3.41,3.54Zm-.04,42.02c5.07,3.04,7.06-2.45,10.15-5.58,12.24-7.54,2.17-16.14-8.39-14.05-.6,6.7-1.16,12.96-1.76,19.63Zm-.31,3.97c-7.46-6.04-8.84-5.62-11.5,4.22,4.19-1.54,7.7-2.83,11.5-4.22Zm8.18,68.91c-4.79-5.6-6.8-16.02-14.15-8.14-9.97,14.14,5.55,12,14.15,8.14Zm.11-5.88c2.87,1.54,5.38,2.89,8.7,4.67,2.63-5.2-4.82-8.35-8.7-4.67Zm29.75-2.35c-5.32,6.76-6.49.16-11.33-1.92-8.92-.81-6.01,7.04-3.12,12.09,5.8-3.2,15.85.17,14.45-10.17Zm14.24-60.32c-4.86-5.16-13.32-8.51-5.18-15.25-3.72-1.2,2.87-12.53-7.86-9.1,11.86-6.34,12.34-5.22-2.6-5.65-2.84,3.34,7.45,10.18-1.85,10.95-3.55,5.42-1.32,16.63-8.92,13.29-8.55-5.25-13.28,9.38-2.32,9.77,11.27,3.97,17.22-5.07,28.72-4Zm25.82,25.78c1.22-3.73,2.7-4.29,5.69-8.32-9.08,2.24-29.37-6.2-24.94,6.92-5.11-1.79-8.18-6.83-10.1,1.25,1.82.12,2.92.19,4.61.3-.59,1.73-1.02,2.99-1.21,3.53,4.3,7.28,8.29,10.14,15.94,10.23.36-5.48-4.08-4.98-7.77-7.9,6.26,1.57,7.33-4.71,11.16-8.91-2.16,8.28,6.92,11.93,6.62,2.91Zm33.67-7.08c-6.2,1.46-9.66,9.05-13.53.47-.32,2.74-.49,4.18-.81,6.97-7.58-16.86-18.43-3.52-9.79-6.16-1.6,2.56-2.89,4.63-4.91,7.87,8.79-5.15,3.64,10.54,9.13,12.29-2.57-15.07,15.07-8.72,19.92-21.44Zm1.03,30.02c-4.89-2.93-6.47-3.42-8.54,3.42,3.14-1.31,9.19.49,8.54-3.42Zm7.47-63.63c6.05-.59,10.8-.93,17.22-.75,2.55-6.02,6.12-4.22,10.37,3.8-3.38,4.17-3.31,7.91-1.47,10.48-4.54-1.78-8.22-3.23-12.74-5.01,1.74,7.49,6.56,9.38,13,5.34,2.53,3.11,7.77,4.29,12.36,2.02-.69-8.3,2.07-11.35,8.35-9.34-1.95-7.42-10.99-2.05-16.16-1.18-1.81-7.92,4.84-7.57,7.54-11.6-4.79-1.81-9.81-3.71-15.45-5.84-.22,2.63-.35,4.19-.63,7.61-3.26-9.78-6.24-3.55-11.81-.11-1.41-13.81-13.08,5.06-25.48-7.32,1.73-1.22,3.29-2.33,5.98-4.24-17.6-2.77.12,17.65,8.92,16.14Zm2.18,7.24c.25,3.41.44,6.04.65,8.99,3.28-1.05,5.85-1.88,8.98-2.88-3.05-1.93-5.68-3.6-9.63-6.1Zm-1.63,43.8c6.73,2.68,10.33,8.05,17.33,11.07v-10.49c7.9,3.23,6.68-7.74,12-8.74-.99-5.91,1.54-11.33,7.03-13.76-1.19,2.44-1.54,2.77-3.24,4.64,10.12,4.81,8.82-20.79,3.72-9.02-1.47,3.13-3.52,4.28-6.9,3.15-9.57-1.91-10.52,3.19-7.91,11.92-2.28-.47-4.56-.94-7.35-1.51,7.38-18.32-12.98,7.44.12,6.85-4.22,8.76-14.74-2.35-14.81,5.88Zm8.71,52.86c-2.14-3.65-2.09-9.37-6.75-9.06-2.26,5.7.06,10.98,6.75,9.06Zm27.79-15.97c-4.37-.67-9.38-3.35-11.78,3.67-9.81,5.33-3.2,7.39,2.82,4.68,5.09,12.08,20.59-4.04,8.96-8.36Zm9.26-23.05c-4.98-.53-9.93-.51-12.07-7.21-.33-1.04-4.4-1.21-6.6-.84-9.17-.06-4.71,11.69-9.37,16.23-5.75,4.12-8.36-3.7-13.87-6.01-1.59,12.77,8.94,6.62,16.29,8.98,4.59.54,7.32,12.51,12.01,5.34,6.65-16.1,23.38-12.63,13.62-16.5Zm16.29-678.58c4.56-.48,7.31,8.38,12.37,2.5,3.02-3.51,9.38-3.55,8.81-11.34-8.32-6.19-7.91,11.38-14.36,9.6,4.32-10.47-7.2-3.97-12.87-5.28,5.49,5.99,4.02,11.77-2.78,14.41,7.05,8.57,18.35-1.42,8.82-9.89Zm3.71,641.69c-5.02-1.57-6.4-2.18-8.96,4.46,4.48-1.88,9.31-.08,8.96-4.46Zm9.38,39.02c-.63-3.92-9.34-.99-12.55-.76-.51-.03-3.19,8.49-.17,8.61,1.2-8.54,8-6.16,12.72-7.86Zm10.09-670.73c-2.24-1.99-3.47-4.1-6.51-4.94-.82,1.98-1.43,3.44-2.23,5.37-12.01-9.8-8.02,12.24,8.74-.43Zm.51-12.45c8.66-.66,2.6,12.79,10.52,13-2.51-5.55,1.97-5.29,6.78-7.09-.93-1.06-1.81-2.08-3.08-3.54,14.77-3.72-10.24-17.03-14.22-2.37Zm56.24,1.55c-7.76-8.4-23.79-5.97-34.24-5.52-2.27,3.69,5.19,7.56-2.84,10.13,5.14,3.14,18.85,1.59,6.07-1.96,4.8-2.52,11.23,2.16,13.19-4.28,6.17.93,13.17,8.31,17.82,1.63Zm-1.08,709.02c4.1.45,7.94.87,12.69,1.39,1.1-9.47-6.15-10.58-12.69-1.39Zm38.75-40.85c1.85,1.8,3.98,4.43,6.66,3.71,4.04-4.76-3.69-6.11-6.66-3.71Zm-.15-.15s.04.04.06.06c-1.52-3.46-2.81-6.86-5.53-9.39-3.53,6.33-1.7,10.49,5.47,9.32Zm-10.06-5.76c-.73-1.36-1.25-3.61-2.23-3.88-12.32-2.8-3.64,6.73,2.23,3.88Zm14.1,41.21c-8.27-8.87-13.03,1.02-19.74,5.19,3.43,5.95,6.48,6.72,9.04.96,2.25-5.06,4.24-8.85,10.7-6.15Zm11.77-20.21c-.29-12.05-11.18-7.59-17.98-6.97,5.28,6.21,10.26,8.41,17.98,6.97Zm3.49-6.84c1.3,4.26,8.9,8.19,13.2,6.59-3.94-7.09-6.78-8.45-13.2-6.59Zm13.2,22.02c-4.83-6.06-8.22-.59-12.02,1.66-.12,2.84,13.93,2.27,12.02-1.66Zm53.32,10.79c27.27-3.13-4.38-.01-15.57-1.73,2.02,8.16,11.28,9.13,17.91,5.57-.72-1.18-1.28-2.1-2.34-3.84Zm69.85-14.07c-9.35-3.93-13.1,7.02-21.2,4.68-1.05,5.89-6.21,3.75-9.89,4.75-2.79.76-4.14-.53-4.81-3.62-6.63-6.05-15.01-1.01-17.44,8.03,3.69,8.02,10.01-5.4,15.38-.37,12.21-2.42,23.41-.17,36.09-3.11-4.69-5.77-2.13-6.15,1.87-10.36Zm.76-16.7c-6.96-3.19-12.57-5.76-19.08-8.75-3.39,6.39-1.57,8.7,4.36,10.11,6.43,17.06,4.85,3.28,14.72-1.36Zm34.26,23.25c-8.57-5.66-21.87,3.87-25.8-4.03-1.31-3.1-4.06-2.88-4.83.4-1.29,5.39.07,12.69,6.19,8.5,11.65-5.29,16.48,4.66,24.43-4.88Zm34.9-1.16c-6.23-3.67-12.67-12.31-16.67-1.68-.59,1.16.83,5.14,1.35,5.14,5.16.06,10.92,2.54,15.32-3.46Zm37.63-4.47c-6.64-6.68-5.09,3.13-10.51,3.9-3.63-1.2-2.25-8.57-7.18-7.39-6.24-1.54-9.21,7.41-3.92,10.14,8.24-.07,17.38,3.76,21.61-6.65Zm129.54-668.45c3.19,10.01,8.84-3.3,11.44,3.96,3.02-3.03,4.05-8.46,8-3.93-3.44-10.88-12.18.5-19.44-.03Zm-90.2,653.5c-3.77-2.56-22.81-6.21-11.83-11.67-4.76-4.02-12.94-15.52-15.25-4.55h8.57c-8.57,12.67,8.08,23.93,18.51,16.21Zm32.19,30.26c-5.45-6.58-2.74-5.26-1.99-10.01-10.27-3.53-20.88-17.74-28.79-2.95,3.15-8.67-8.47-5.79-13.79-7.86,1.17,3.92,2.13,7.12,3.09,10.32,5.23,6.6,9.82-.53,15.6,1.8,6.76,4.16,10.06-2.77,17.56.87-.22.36-.76,1.97-1.81,2.74-10.22,3.21,4.38,3.77,10.14,5.09Zm9.17-14.8c-1.17,2.24-2.34,4.48-3.51,6.71,5.39,3.53,8.85-5.82,3.51-6.71Zm13.76-54.81c1.51,4.04,3.09,5.09,6.17,2.01,17.47,13.52,13.29-11.31-6.17-2.01Zm34.89-614.26c2.21-14.98-11.04-10.86-20.38-13.25-3.33,2.35-7.84-2.81-9.71,3.19-8.51-3.27-46.82-16.45-33.97-1.08-3.72,6.45-5.78,6.72.89,14.52,3.6-9.71,8.86-4.42,13.84-4.23-.62-1.97-1.01-3.24-1.85-5.94,2.32.78,4.45.78,5.27,1.91,7,9.69,13.88-.38,20.57,4.71,12.86-3.07,12.3,7.63,25.34.17Zm-8.72,622.59c4.93-2.01,8.6-3.5,12.51-5.1-5.09-3.96-11.93-3.17-12.51,5.1Zm29.95,29.39c-6.39-9.89-14.88-11.99-25.67-11.61,8.48,10.21,9.29-.19,12,17.54,1.92-4.06,3.18-6.71,4.45-9.41,3.1,1.17,5.83,2.2,9.22,3.47Zm36.97-657.66h13.97c-5.2-5.46-8.86-5.32-13.97,0Zm-30.3-6.28c2.84,8.34,8.31,3.99,14.16,7.97-1.26,7.08-7.07,3.44-8.92-1.55-1.4,3.38-2.17,5.26-3.28,7.92,6.6-1.03,13.13,5.49,19.14.04,2.57-1.87,15.08,2.68,14.59-3.42h-8.82c6.43-9.18-7.71-10.49-12.34-7.42-4.18-1.54-9.68-3.49-14.54-3.54Zm13.04,658.23c-6.66-4.07-10.08-2.98-10.31,1.51,3.71-.54,7.01-1.03,10.31-1.51Zm3.94-2.33c1.82,3.31,3.3,5.99,4.96,8.99,2.88-8.13,2.22-9.43-4.96-8.99Zm23.37-25c-8.88-5.72-56.36-3.62-36.25-.38,2.58-.68,5.14,6.34,7.03-.88,1.69,2.11,2.81,3.51,4.27,5.32,4.14-6.46,8.84-1.34,13.32.65,2.31-5.95,7.92-2.41,11.65-4.7Zm12.14,22.07c-4.13,4.33-16.65,9.87-4.97,7.21v5.55c1.9-4.88,3.22-8.25,4.97-12.76Zm10.58-22.85c-5.96-6.69-11.61,2.56-18.75-.51,1.64,7.45,3.63,6.59,8.27,3,4.68,3.81,11.07,1.39,16.4.83,13.95-5.54-.55-9.66-5.92-3.33Zm44.14,1.17q-3.44-6.39-7.86-2.26c-6.62-3.42-13.38-4.48-21.65-1.88,11.23,1.45,19.59,6.46,29.51,4.14Zm6.45-607.69c2.68-10.94-16.41-5.87-22.37-9.72-9.35-7.93-24.79-12.54-36.13-7.48,7.17,8.14-1.65,5.89,3.46,13.31,5.78-5.14,6.89,1.9,10.2,5.33,5.76-14.21,34.61-3.58,44.85-1.43Zm7.93,642.54c-3.14,1.49-10.84-.25-8.4,5.09,2.55-1.7,10.01-.9,8.4-5.09Zm25.94-30.7c-1.01-5.31-8.99-5.75-13.81-9.56,1.67,6.93-7.99,10.65-12.42,12.15,2.87-3.91,7-7.93.24-10.97-9.67,5.72.79,14.15-2.93,20.86h10.74c-3.42-2.73-5.68-4.52-8.01-6.39,4.02-1.63,7.02-6.07,10.53-.42,2.6-9.87,8.59-9.36,15.67-5.67Zm14.29-625.89q-2.5-2.51-16.68-1.37c2.27,1.59,3.64,2.55,6.15,4.31-6.15-.63-11.07-1.13-16.47-1.69,4.22-4.19,5.26-14.08-1.64-6.66-3.41,8.37,1.53,21,11.06,20.84,9.77-.15,18.71-6.36,26.85,3.94,18.42-15.82-30.72-14.14-9.28-19.38Zm28.55,10.4c3.9-.84,13.37,4.02,13.42-1.5-4.25.55-13.91-5.46-13.42,1.5Zm14.74,3.81c-4.47-3.39-19.67,4.73-17.96-5.15-2.99,1.89-7.18,4.7-8.81,5.61,7.36-.27,25.2,10.98,26.77-.47Zm59.56,7.5c-7.23-1.14-14.46-2.28-23.09-3.64,13.23-7.07-12.47-5.85-17.72-7.54.5,1.52,1.99,5.86,2.03,6.35,12.45,7.17,25.52,5.18,38.79,4.83Zm7.56-1.28c17.76-1.85,1.61-5.12-7.06-5.89.82,4.59,3.18,6.97,1.6,10.31,7.57.98,18.65.89,5.47-4.42Zm30.88,21.77c-10.21,2.58-14.26-7.86-25.17-4.41,4.71,4.58,11.76,5.97,13.65,13.34,4.09-3.17,7.41-5.74,11.53-8.93Zm6.74-14.49c-1.34-.73-2.8-1.53-5.62-3.06,9.67-.91-2.2-6.32-4.56-3.7.91,1.47,3.99,3.66,1.54,4.87-3.89.35-4.15-2.37-3.6-5.71-15.93-5.36-4.67,7.43-14.33,4.51,8.67,5.07,16.83,4.66,26.57,3.09Zm140.6,220.55c-16.18,1.81-4.29,4.64,7.66,6.85v-5.9c-.16.33-.32.66-.5,1.03-7.05-1.05-8.99-4.22-.19-3.44-7.7-5.71-10.07-5.92-12.24-1.1,2.42.4,3.11.59,5.27,2.55Zm63.9,59.81c12.13,23.46,11.87-29.83,1.16-14.91-2.22,6.57,7.47,12.83-1.16,14.91Zm-56.25-42.3c-4.66-1.42-8.99-2.75-13.51-4.13,1.99,5.54,6.02,7.64,13.51,6.5v-2.38Zm27.63-109.03c.02-.67-.06-1.37-.24-2.09-.15.1-.32.2-.54.28.29.59.54,1.2.78,1.81Zm4.02-38.75c-1.24.33-2.42,1.15-3.28,2.86.37.22.73.43,1.08.64,1.06-.59,1.71-1.9,2.2-3.51Zm-64.62,443.16c1.93,4.52,26.65,9.25,32.98,6.07v-1.51c-10.04-1.85-13.68-3.81-.86-7.59-11.68-7.36-6.2,2.67-15.34.55,1.21-1.04,1.79-1.55,4.02-3.47-13-2.94-1.25,6.76-20.8,5.95Zm32.98.57v-1.86c-.37,0-.69,0-.97.01.31.66.63,1.27.97,1.85Zm47.66-319.34c-.07,2.15-2.46,8.37,5.09,2.92,5.12-1.54,12.09,2.48,15.01-5.25-6.86-3.18-13,.85-20.1,2.33Zm-21.78-26.66c.72.04,1.4.15,2.06.3,1.3-4.03,3.88,1.84,5.25,1.67-.13.19-.25.36-.38.53,4.72,3,8.4,7.03,15.89,2.05-9.77-8.69,3.35-2.82,1.98,1.96,9.01.68,7.82-9.51,1.96-13.48-7.62,2.95-23.43.49-26.75,6.96Zm20.15-125.3c7.2-4.1-.11-8.28-2.9-13.97-.2,5.92-4.3,13.71,2.9,13.97Zm-16.6,12.48c.82,3.09,2.08,6.09,3.64,9.05,1.09-4.29,2.91-7.51,9.1-3.54-9.9,6.29,10.4,7.55,5.85,17.66-.09.98,1.77,4.76,3.27,3.29-.51-5.69,2.76-13.99-4.74-14.28,6.52-14.51,2.03-14.04-10.16-15.22-2.76-.43-4.03,4.26-6.95,3.05Zm-29.43,89.73v-.88c-.44.18-.49.46,0,.88Zm-5.68-.92c-3.75-1.15-4.66-11.33-10.32-4.28-10.43-11.59-14.37,5.88,10.32,4.28Zm-21.92,6.16c9.53-2.56,7.96,6.43,11.2,11.15-13.65.14-2.99,4.72,4.49,5.96-8.02,4.15,3.2,5.01,11.92,5.84v-2.47c-6.38-1.47-12.89-2.32-3.14-3.2,1.03.08,2.08.22,3.14.38v-2.53c-10.83-1.7-22.22-5.35-3.25-7.53-3.94-7.59-16.3-11.44-24.35-7.6Zm-8.51-154.52c3.12,3.63,5.69,1.58,8.35-.63-2.94-4.19-3.98-4.12-8.35.63Zm-27.52-5.93c6.62,7.29,11.4,7.5,14.52,0h-14.52Zm22.5,617.5c2.38-3.62,3.85-5.52,6.17-8.83-6.89-3.63-14.5,2.33-19.91-5.91-.76,7.9-11.2,6.49-5.35-.35-1.7.17-3.5.06-3.57.4-3.66,12.39-18.34-4.84-13.78,13.36,6.46-7.26,16.36-7.71,18.26,1.37,7.38-1.59,21.87-3.22,7.74,5.89,6.62,9.85,6.37-10.42,14.84-.19.35-2.18.67-4.15,1.01-6.21-1.65.15-3.05.27-5.41.48Zm-18-47.54c5.15-5.55.9-11.38-2.93-7.21.75,1.84,1.49,3.68,2.93,7.21Zm-12.59-524.18c4.24.96,8.48,1.91,12.72,2.87-.89-4.34-1.88-6.68-5.67-4.35-1.62,1.81-7.04-2.17-7.05,1.49Zm-18.66,546.97c.97-5.88,4-8.31,9.89-7.96.98,2.27.6,9.28,4.5,7.02,3.3-2.49,17.53-5.53,11.6-11.1-1.05.05-2.05,1.24-3.04,1.92-1.64-5.9-8.27-4.06-12.22-3.39-8.36-5.72-14.21,6.12-10.74,13.51Zm-45.67-604.07c1.16.45,2.31.9,4.6,1.79-2.74,1.01-3.63,1.34-4.57,1.69,34.29,13.47,28.5-3.76-.04-3.48Zm42.26,631.66c-.32-2.95-.54-5.04-.76-7-3.21-1.11-7.55,2.05-7.49-4.31-4.89,3.64-4.85,4.53.11,7.32-5.35-.73-9.78,1.97-6.03,7.89,3.76-4.81,8.43-5.75,14.17-3.89Zm40.48-.46c-14.39,7.01-27.76-.11-42.81,1.98,3.32,8.79,20.64,2.94,28.86,5.09,5.8-.34,15.2,2.58,13.96-7.06Zm36.41,20.8c-7.08-.94-12.09-1.21-19.81-1.01,1.63-1.95,2.3-2.75,3.45-4.12-6.58.43-14.83-2.29-19.42-.15,13.21,2.97-1.57,2.28,2.94,9.27,1.14,3.35,2.64,4.74,6.31,3.04,6.75-6.64,23.4,1.08,26.54-7.03Zm7-32.01c-9.89-4.74-10.19.73-19.81-7.87-7.61,10.51,10.55,10.65-1.69,12.4,2.25,12.13,16.42,9.51,7.36-2.61,4.86-2.55,5.85-2.17,6.54,4.05,2.57-.18,9.76-1.73,7.59-5.97Zm9.89-28.94c-7.14-1.55-13.89-3.62-14.64,5.39,5.19-1.2,9.93-.82,14.64-.42v-4.97Zm0-18.4c-5.87-2.04-12.34-4.29-19.72-6.86.67,5.11,1.07,8.11,1.43,10.9-2.18-.28-4.45-.57-7.22-.92,1.94-2.44,1.74-4.84,2.43-7.7-4.82.33-8.91,1.02-14.01,1.71.33-2.58.52-4.13.77-6.11-7.1,2.49-8.65,3.5-3.52,10.9-3.94-.32-7.77-1.43-10.61.76-9.01,16.77,19.11,8.62,20.02,17.92-6.14.69-24.78-5.49-21.57,6.28-4.63,11.33,33.37,3.71,38.12.82-5.24-.91-1.99-7.75-2.79-9.03-6.03-1.26-5.06-6.2-5.07-11.51,4.99,1.29,9.88-3.63,15.6-.13-13.73,5.23-3.44,8.02,4.57,5.6.55-.28,1.07-.53,1.57-.75v-11.89Zm98.73-269.43c-1.64-4.4-1.36-9.93-8.26-7.6,2.22,7.34,4.06,8.82,8.26,7.6ZM532.39,173.42c9.51.53,20.97-4.53,29.64-.25,3.52,5.2,5.15,2.43,7.18-1.89-6.15-.04-1.67-3.04-1.09-5.19-4.39-.68-8.78,9.71-12.38-.6-1,1.01-1.95,1.95-3.07,3.08-1.08-1.85-1.97-3.38-3.15-5.39-1.53,7.36-15.4,4.89-15.22,1.52q-9.86,1.29-11.91-1.27c-22.59,7.71-1.52,5.7,10,9.98Zm51.34-47.93c-4.23.5-23.88-4.68-19.97,3.69,6.01,4.32,14.51,3.46,19.97-3.69Zm9.95,47.45c-2.82-2.18-5.92-4.57-9.68-7.48-1.23,4.54-2.16,7.99-3.33,12.33,5.52-2.06,9.49-3.54,13.02-4.85Zm7.11-38.93c-1.68-1.19-3.36-2.39-5.69-4.04,1.45-.76,2.06-1.07,3.52-1.83-3.05-.48-5.32-.83-8.26-1.29.3,1.64.49,2.7.75,4.16-19.76-2.49,4.85,6.87,9.67,3.01Zm-44.04-5.08c5.15-.78,1.19-7.36-2.4-5.43-6.74,3.45-11.4-1.35-17.41-5.23,3.88,9-.98,3.56-2.18,9.08,6.12,3.13,14.99.72,21.98,1.58Zm-38.34-4.33c-5.61,3.94-12.8-3.09-17.76,4.63,7.96,2.32,17.07.25,17.76-4.63ZM224.86,675.85c-.79,4.1,5.01,1.52,7.47,2.19.77-4.1-5-1.52-7.47-2.19ZM612.49,136.23c-.58-7.46-4.81-7.53-10.14-9.06.02,4.27,6.26,5.24,10.14,9.06ZM197.87,505.28c-2.82,5.36,3.61,6.12,6.71,5,1.52-2.95-4.86-3.34-6.71-5ZM511.67,140.8c-.91-5.36-10.45.69-14.68.24.27,7.18,10.15-.37,14.68-.24Zm-299.29,499.58c5.24.7,10.55.71,16.48,1.01-4.61-8.54-9.97-13.31-18.33-14.56-.95,4.59-4.17,11.71,1.85,13.55Zm815.09-457.94c1.05-1.6,2.1-3.19,3.15-4.79-.2-.48-.41-.96-.61-1.45,1.42-.08,2.83-.16,4.52-.25-3.33-6.95-16.13.92-7.06,6.49Zm-72.13-20.57c-1.45-1.19-3.17-1.56-4.11.27,1.38-.23,2.76-.31,4.11-.27Zm-330.91,15.12c1.29-3.24-3.29-3.12-5.91-5.22,2.3-.84,3.75-1.36,5.45-1.98-8.43-5.45-9.33,9.23.46,7.2Zm-410.3,468.93c0-1.44-2.14-2.89-3.8-4.96-6.93,17.23,7.41,15.25,16.79,17.67,4.1,2.59,5.01,4.92,10.11-.4-6.8-3.29-12.82-6.21-18.85-9.12-1.56-.26-4.27,3.29-4.24-3.19ZM1012.12,180.6c2.41-3.94,3.69-6.33,8.01-2.88-3.57-7.08-26.79-14.3-41.55-13.25,3.22,15.99,28.77,6.11,33.54,16.13Zm-70.63-13.37c4.89.92,5.25.64,6.23-5.95-5.6.23-11.15-6.45-16.81,1.77-1.37-5.64-5.14-6.29-6.86-1.01,3.15,5.17,12.21,3.13,17.44,5.19Zm15.11.83c17.08.86,9.03-5.96-1.26-6.2,2.09,1.73,3.6,5.19,1.26,6.2Zm-34.34,11.65c-1.48-4.09-8.22-1.51-11.8-2.66,2.1,3.04,8.28,6,11.8,2.66Zm-90.7-23.48c3.55.63,7.1,1.27,10.75,1.92,1.78-10.64-6.24-5.03-10.75-1.92Zm-191.8-15.22c1.67-2.1,3.76-5.38,7.55-1.59,6.62-.49,12.94.53,11.38,9.98,5.4.44,3.51-5.98,4.08-7.59,7.48-4.62,16.08,5.27,22.14-.62-3.23-5.09-8.34-2.08-12.79-5.95-.74,4.56-11.91,4.42-11.38-2.07.04-1.79-1.62-3.63-2.8-6.06-1.53,12.26-4.17,3.61-8.35,6.22,9.14,7.4-13.11-2.19-11.73,1.8-15.71-.85-9.96,2.53,1.89,5.88Zm242.34,19.91c6.97-7.43,40.51,7.15,14.72-9.61-5.93,4.88-12.37,2.93-18.95,2.91-11.41,1.86-1.89,9.22,4.23,6.7Zm-96.81-12.38c-1.36,1.7-2.74,3.47-4.78,2.52,10.58,7,14.13-10.92,4.78-2.52ZM247.71,638.04c-.87,4.65,8.18,2.38,11.37,3.86.99-4.82-8.14-2.4-11.37-3.86Zm4.12-12.64c.72-.04,1.34-1.99,2.01-3.13-2.61-1.24-5.23-2.48-8.49-4.03.96,4.55,2.53,7.38,6.48,7.15Zm225.95,279.95c-.73.89-1.46,2.12-2.26,3.75,4.3,1.83,5.91.71,11.18-.7-3.95-4.72-6.27-6.03-8.67-3.36-.07.11-.13.21-.19.32-.02,0-.04,0-.06,0Zm907.34-7.57c-11.37-1.77-9.33,8.17,1.55,2.41-.52-.85-1.04-2.42-1.55-2.41Zm274.43,15.68c7.52.44,13.56.8,20.66,1.21-5.35-5.76-15.41-6.61-20.66-1.21Zm16.13-100.2c-4.43,1.18-8.15,2.17-11.87,3.16,4.32,5.6,10.98,2.83,11.87-3.16Zm-8.22,14.97c3.38-6.26,9.78-6.32,14.93-8.69-5.61.49-11.22.97-16.18,1.4-.78,2.35-1.46,4.39-2.31,6.92,1.31.16,3.31.83,3.56.37Zm-1055.31-15.9c.08.12.17.23.26.34.08-.05.16-.09.24-.14-.17-.07-.33-.13-.5-.2ZM1134.36,204.08c2.68,1.56,5.35,3.11,9.04,5.26,1.69-5.92-7.74-9.33-9.04-5.26Zm470.22,610.64c-10.37,2.07,3.88,6.83,6.96,1.49-2.12-1.84-4.43-1.65-6.96-1.49Zm79.39-2.86c3.8,7.08,10.7,6.93,19.89-.59-6.99-1.85-13.41-2.83-19.89.59Zm-425.2,78.09c4.36,1.88,7.48,3.23,10.97,4.74-5.13,4.67,2.49,7.37,5.83,8.08,1.65-.08,3.11-4.49,5.22-7.86-11.52,2.13-10.18-11.68-22.03-4.96ZM254.05,622.37s-.17-.19-.17-.19c-.02.03-.03.06-.05.09.07.03.14.07.22.1Zm107,230.1c5.4,3.28,6.64,4.82,3.81,11.28,4.95-2.17,5.91-5.59,3.46-10.71-1.61-3.37-3.92-2.92-7.28-.57Zm33.52,23.85c-1.1.15-1.84,3.34-2.92,5.5,7.15.85,11.81-4.9,2.92-5.5Zm-44.94-12.42c.95-1.46.97-3.64,1.65-6.79-10.72.61-7.57,9.65-1.65,6.79Zm-66.29-32.13h-10.86c.83,3.9,4.79,4.38,10.86,0Zm-13.03-90.73c-3.61-.2-6.61-.37-10.11-.56,2.63,5.34,3.81,5.35,10.11.56Zm133.05,175.59c14.56,5.65,39.85.08,57.92,1.97-14.56-5.65-39.85-.08-57.92-1.97Zm831.87-29.86c3.08-.25,2.21-4.8-1.28-7.9-17.85,3.68-15.19,8.69,1.28,7.9Zm-19.17,2.26c-5.56,5.87-10-4.46-13.89,4.18,1.17.74,2.96,2.39,3.36,2.06,3.84-3.19,7.94-.28,11.79-.99,6.03-1.43,3.51-6.83-1.26-5.24Zm-570.4,25.82c3.53-.45,7.07-.9,10.6-1.35-3.39-5.1-10.83-1.71-10.6,1.35Zm23.97-1.36c-1.95-1.52-3.9-3.04-5.86-4.56-4.1,3.12,2.51,8.4,5.86,4.56Zm553.44-15.29c8.25,4.44,17.7.18,27.6,1.6-3.82-16.94-17.23-6.67-27.6-1.6Z"/></svg>