<?xml version="1.0" encoding="UTF-8"?><svg id="a" xmlns="http://www.w3.org/2000/svg" viewBox="0 0 1920 7860"><path d="m26.94,173.94v-.15s.06.04.1.05c0,.06,0,.11,0,.17-.03-.03-.06-.05-.09-.08Zm.09.08c-.12,2.24-.24,4.48-.36,6.78,3.47-3.04,3.54-4.24.36-6.78Zm-12.41,14.14c-1.98-1.41-3.27-2.33-4.54-3.23.22,4.04.3,4.04,4.54,3.23Zm12.32-14.36v-4.69c-1.71,2.43-1.99,3.78,0,4.69Zm-3.01-21.01c.36,2.02.73,4.03,1.09,6.05,2.26-4.37,2.2-4.66-1.09-6.05Zm-13.85,31.93s-.13.11-.13.11c.05.03.09.07.14.1,0-.07,0-.13-.01-.21Zm28.03-23.53q1.3-2.69-1.09-4.07c.39,1.45.68,2.54,1.09,4.07Zm-3.15-11.58s-.06.03-.1.04v.48c.03-.13.06-.26.09-.39,0-.04,0-.09,0-.13Zm.54-8.55c-.22,3.45-.38,6.01-.54,8.55,3.77-1.66,3.81-2.11.54-8.55Zm-.64,12.62v-3.55c-.26,1.15-.52,2.3-.78,3.45.26.03.52.07.78.1Zm-2.36,3.54c-1.23-.36-2.29-.67-3.4-.98-2.61,3.72-.4,7.32-.27,10.95,2.7-2.8,4.31-5.91,3.67-9.96Zm-.8,14.29c.53.28,1.17.34,2.18.61.47-1.55.88-2.91,1.36-4.51-1.75,1.13-3.07,1.97-4.46,2.86.3.36.54.84.91,1.03Zm103.25-11.48c.09.02.18.04.27.07-.06-.06-.12-.11-.18-.17l-.09.1Zm123.12-67.28s-.01-.02,0,0h0Zm0,0s.04.16.1.43c.08-.06.15-.12.23-.19-.1-.06-.22-.1-.29-.18-.02-.02-.03-.04-.04-.06Zm1661.92,122.86v7644.4H0V242.39c.67-4.83,1.25-9.67,2.03-14.47.48-2.97,1.25-5.89,1.89-8.84l1.11.71c2.15-1.69,4.3-3.36,6.44-5.07,1.12-.9,2.13-2.25,4-.55-1.33,1.49-2.53,2.85-4.2,4.73,2.94-.81,5.13-2.13,7.07-1.82,7.62,1.23,15.14.77,22.9-.37,1.37,5.92,5.23,1.3,8.15,1.89,3.27,2.86,6.72,5.75,10.03,8.81,4.05,3.74,10.38,3.47,14.37-.74-3.36-5.57-7.31-10.9-7.59-17.9,3.58-2.09,6.38.27,9.16,1.25,3.63,1.27,7.07,1.66,10.68.32.28-.1.64.03.95.05,1.21.85,2.4,1.69,3.6,2.54,1.26-1.17,2.49-2.08,3.43-3.23,1.41-1.72,3.27-2.09,4.88-1.13,3.97,2.36,7.74,5.09,11.63,7.7-.72,1.76-1.14,2.79-1.19,2.92,1.79,3.53,3.26,6.31,4.63,9.14.59,1.22.74,2.74,1.52,3.76.87,1.13,2.23,1.85,3.38,2.75.41-.22.81-.43,1.22-.65v-8.09c2.55,1.54,4.33,3.84,5.36,6.81-.49.1-.97.2-1.46.3.29.53.57,1.49.86,1.49.57,0,1.13-.53,1.7-.84,5.51,3.36,9.65-.56,14.57-2.47v-10.34c3.26,1.23,5.83,2.18,8.39,3.16,2.87,1.11,5.38,3.2,8.9,2.02,7.23-2.42,14.57-4.51,22.78-7.02.14-1.48,1.38-4.88.4-5.82-3.03-2.89-4.18-7.85-8.9-8.91-.95-.22-1.84-.75-2.74-1.2-9.71-4.82-19.42-9.64-29.11-14.5-1.6-.8-3.13-1.74-4.69-2.61,5.08.97,9.94,2.49,14.65,4.43,4.9,2.02,9.65,4.43,14.43,6.65,1.24-2.17,2.21-6.23,1.26-7.53-1.53-2.09-3.32-4.32-5.51-5.49-6.14-3.27-12.39-6.3-17.55-11.14-2.36-2.21-4.17-5.15-6.76-6.95-2.7-1.87-6.05-2.76-9.1-4.12-.11-.05-.07-.49-.15-1.27,4.15,1.45,8.06,2.81,11.96,4.17.09-.2.17-.41.26-.61-1.48-1.4-2.95-2.8-4.43-4.2,3.36.82,6.74,1.65,11.06,2.71-1.47-1.65-2.24-2.52-3.6-4.05,2.85.65,4.22.13,5.58-1.77.93-1.3,3.24-1.56,5.07-2.34-.28-.67-.67-1.59-1.27-3.02,3.16.79,5.69,1.42,8.44,2.11v-2.71c6.58.79,12.94,1.92,19.33,2.14,2.49.09,4.83.14,7.24.86,8.26,2.47,16.54,4.87,24.87,7.06,1.41.37,3.48.12,4.6-.74,2.88-2.21,5.17-5.09,6.63-8.69-1.68-1.25-3.4-2.1-4.54-3.47-2.33-2.77-5.05-4.59-8.33-6.11-3.54-1.64-6.59-4.41-7.01-9.23h4.17c-2.04-1.99-3.28-3.69-4.92-4.69-4.08-2.48-5.98-5.66-4.3-10.48h1.27c-3.09-7.65-8.49-13.3-14.01-19.31.4-1.24.85-2.64,1.31-4.04-.02.01-.05.02-.07.04.8-3.14,1.27-6.43,2.52-9.37.86-2.03,2.57-4.74,4.27-5.07,2.79-.54,4.17-2.22,5.2-4.21,2.16-4.16,6.26-4.99,9.87-7.25.84,1.39,1.5,2.49,2.29,3.8h7.3c-.32-.74-.56-1.28-.93-2.13,10.51-3.75,21.48-2.96,31.83-6.2-2.2-.48-4.4-.96-6.6-1.44.06-.31.11-.63.17-.94,3.1-.14,6.19-.29,9.29-.43.57,1.36,1.01,2.39,1.67,3.97,4.25-.41,8.46-.82,12.97-1.25,4.57,2.52,6.34,2.53,11.04-.43,2.28.88,4.84,2.08,7.51,2.83,1.67.47,3.79.89,5.24.23,2.96-1.35,5.76-1.22,8.77-.68,4.42.8,8.85,1.55,13.3,2.08,2.32.28,4.7.05,7.05.05.05-.38.09-.75.14-1.13-5.78-1.03-11.52-2.34-17.34-3.02-5.09-.6-10.26-.48-15.39-.7-5.81-.25-11.61-.6-17.42-.79-3.7-.12-7.44.21-11.05-1.16.58-.58,1.15-.83,1.74-.9,6.05-.75,12.13.29,18.24-.77,4.41-.77,9.08-.32,13.59.06,4.66.39,9.27,1.42,13.92,2.05,3.79.51,7.71.43,11.39,1.39,3.56.93,6.8,1.35,8.96-.22,5.55,1.6,10.22,2.95,14.88,4.3.1-.26.2-.52.31-.78-1.68-1.07-3.37-2.13-5.05-3.2,2.54-.18,4.72.48,6.94.91,4.87.96,9.91,1.33,14.61,2.83,4.54,1.45,8.75,3.9,13.76,2.98.6-.11,1.3.23,1.94.44,3.26,1.08,6.48,2.33,9.78,3.24,7.5,2.06,15.12,3.67,22.53,6.02,7.9,2.51,15.63,5.57,23.35,8.62,1.12.44,1.79,2.12,2.48,2.99,2.62,0,5.24-.61,7.45.12,5.68,1.86,11.19,4.3,16.75,6.54,3.86,1.55,7.7,3.15,11.54,4.74,2.31.96,4.86,1.56,6.85,2.99,4.32,3.1,9.21,2.93,14.58,3.79,0-8.48.06-16.52-.07-24.55-.02-1.04-.76-2.31-1.54-3.06-2.67-2.58-2.94-5.41-1.86-8.89.88-2.85,2.01-5.91.23-8.92-3.95-6.64-.83-12.57,1.33-18.69,1.24.33,2.03.55,3.07.83v-7.74c2.62-3,5.32-6.22,8.18-9.29.76-.82,2.02-1.63,3.04-1.62,3.95.03,6.81-2.18,9.74-4.41.52-.39,1.18-.69,1.82-.8,2.73-.47,5.47-.86,8.52-1.33.9.58,2.12,1.38,3.48,2.26,1.82-1.28,3.49-2.45,5.41-3.8.62,1.82,1.05,3.06,1.15,3.37,4.45,4.16,9.19,3.06,13.64,3.27,4.76.23,9.53.05,14.51.05,6.11,2.93,9.73,8.07,10.93,15.11.06.33.26.63.39.94,4.03,10.12,8.23,20.18,12.04,30.39,2.98,7.98,5.7,16.09,8.12,24.27,3.15,10.66,5.83,21.46,8.86,32.16.53,1.86,1.65,3.61,2.77,5.21,4.46,6.39,11.66,9.39,17.16,14.52,4.94,3.48,10.44,3.63,16.14,3.04,5.36-.55,8.02,4.1,11.57,6.95.41.33.71,1.42.5,1.88-1.39,2.94.47,5.33,1.25,7.81,1.17,3.72,2.64,7.35,4.19,10.92,1.34,3.09,2.44,6.58,4.63,8.91,3.11,3.31,6.27,6.13,5.77,11.32-.07.76,1.23,1.66,2.02,2.66.51-1.12.82-1.79,1.08-2.35,3.24,2.03,6.22,3.89,9.61,6.02-.19-3.69-1.26-6.31-4.29-7.55-2.65-1.09-3.63-3.08-3.74-5.76,1.35,1.09,2.7,2.18,4.21,3.4.8-.34,1.81-.76,2.71-1.15.69,2.13,1.31,4.05,1.94,5.96.84,2.53,1.52,5.14,2.58,7.57,1.39,3.19,2.78,6.49,6.14,8.18,1.17-2.5,2.21-4.74,3.21-6.88-1.5-4.16-2.53-8.51-4.56-12.29-2.33-4.34-.9-9.94-4.74-13.64-.29-.28-.34-1-.25-1.48.82-4.71-2.6-8.14-2.87-11.93-5.81,1.91-11.18,3.68-17.05,5.61-1.6-1.97-3.33-4.1-5.02-6.19.91-1.58,1.58-2.75,2.19-3.81,11.98-3.49,23.8-6.94,35.61-10.38,1.74,3.96,3.4,7.74,5.06,11.52-.26.18-.52.37-.79.55-1.71-1.93-3.42-3.86-5.72-6.46-.02,7.29-.87,13.71,1.64,20.26,3.6-.79,5.28,1.06,6.49,4.14.99,2.54,2.63,4.81,4.48,8.09-1.06,4.35,1.08,8.86,4.64,12.77,1.85,2.04,3.4,4.03,3.62,6.97.07.85,1.18,1.62,2.34,3.09.58-2.73.95-4.48,1.41-6.66,4.93,4.74,11.48,1.89,16.62,4.56.19.68.43,1.16.43,1.65.04,3.22.17,6.45,0,9.67-.18,3.24,3.62,6.17.68,9.59,1.64,4.63,3.27,9.26,4.94,13.87.08.22.57.28.97.47,1.34-.32,2.76-.67,4.76-1.15,5.02,4.57,10.17,9.27,15.26,13.91,1.04-2.84,2.2-5.49,2.93-8.26.41-1.55.66-3.62-.01-4.9-1.61-3.04-1.83-5.69-.07-8.7.54-.92.41-2.34.35-3.51-.49-8.46-1.17-16.9-1.5-25.36-.13-3.41.48-6.86.72-9.97-1.26-5.14-2.94-10.13-3.6-15.26-.54-4.28.12-8.72.27-13.57,2.72-.28,5.84-.6,9.75-1-.69,4.84,2.67,5.14,5.07,6.4,3.71,1.95,7.58,2.52,11.71,1.34,1.35-.39,2.89-.06,4.51-.06.7-1.27,1.42-2.57,2-3.62,2.83-1.3,6.48-.6,6.8-4.82,5.31,2.29,6.52,4.06,5.76,9.1-.86,5.71-2.06,11.36-3.19,17.44,4.73,4.49,2.62,10.4,1.85,16.78-1.04-1.43-1.75-2.4-3.15-4.32v7.04c-1.05-.74-1.35-1.63-1.72-2.49-.36-.83-.8-1.62-1.2-2.42-.49.09-.98.18-1.47.27.13,6.9,1.22,13.74,2.6,20.12-3.27,5.22-1.74,10.7-2.7,16.67,3.93-.73,7.23-1.35,9.99-1.87,1.78-4.46-1.33-8.42,1.29-12.69,1.65,3.35,3.01,6.13,4.82,9.8,2.26-6.56.61-12.4.83-18.11,0-.12-.19-.32-.32-.37-2.98-1-1.69-3.03-1.25-5,1.01-4.56,4.08-8.5,3.75-13.48-.05-.77.61-1.58.84-2.39,1.08-3.89,2.29-7.76,3.13-11.7.8-3.72-.05-8.04,4.09-10.36.33-.19.4-.9.54-1.39,1.95-6.69,3.93-13.37,5.83-20.07,1.75-6.15,3.41-12.33,5.12-18.49.14-.49.21-1.12.54-1.42,2.41-2.18,2.21-4.68.29-7.71,1.59.16,2.47.25,3.19.32.79-2.26,1.67-4.4,2.31-6.62,2.3-7.98,4.5-15.98,6.77-23.97.23-.82.57-1.61.92-2.38,1.77-3.84,3.58-7.67,5.35-11.51,1.21-2.63,2.26-5.35,3.61-7.9,2.92-5.54,6.33-10.84,8.87-16.55,2.66-5.97,8.21-9.33,11.43-14.72.91-1.51,2.35-2.68,3.55-4.01.24.19.47.38.71.57-.91,1.72-1.82,3.44-3.01,5.69,3.81-.91,4.13-1.45,6.25-4.52,7.34-10.59,14.06-21.68,23.6-30.49,2.71-2.5,4.76-5.73,7.43-8.29,3.84-3.68,7.87-7.25,13.61-6.73.67,1.07,1.24,1.97,2.14,3.4,2.33-2.03,4.34-4.64,7.51-2.87,1.47-3.29,3.81-2.06,6.67-1.19-.56,3.32-.86,6.52-1.67,9.58-1.18,4.43-1.72,8.65-.34,13.25.76,2.53.15,5.58-2.46,8.51-.41-8.04-.78-15.27-1.14-22.37-1.9-1.33-3.36-2.34-5.69-3.97-.33,2.55-.54,4.2-.76,5.92-2.09,1.24-4.11.89-6.53.32-2.1-.5-4.59.79-7.09,1.33.3-1.62.5-2.67.7-3.73-.29-.16-.59-.33-.88-.49-9.79,10.24-18.88,21.1-25.77,33.64-1.16-.62-1.67-.89-3.09-1.65,1.06,2.38,1.65,3.72,2.14,4.82-.18.51-.2.71-.3.82-2.95,3.13-6.86,5.67-5.88,11.08.11.6-.69,1.49-1.23,2.08-1.28,1.39-2.66,2.67-3.72,3.73.47,2.31.8,3.9,1.18,5.79,1.27-.9,2.33-1.66,3.89-2.77.64,1.06,1.24,2.05,1.83,3.03,0,0,0,0,0-.01,1.62-1.61,3.72-2.96,4.74-4.91,1.27-2.44,1.5-5.43,2.47-8.07.46-1.26,1.58-2.27,2.28-3.23,8.99,10.74,20.65,13.93,33.19,16.3,1.16,1.09,2.71,2.55,4.29,4.04,1.17-.59,2.18-1.11,3.37-1.71,1.02.94,1.97,1.83,2.54,2.36.48,3.89-.91,6.59-2.55,9.41-1.63,2.81-2.52,6.08-3.77,9.22-1.09-.46-2.01-.84-3.65-1.52,1.72,5.88,2.6,11.08.41,16.38-.33-.98-.66-1.96-1.03-3.04-1.54.82-2.79,1.49-3.79,2.02-.8,3.67,2.48,3.79,4.4,5.75-1.1.38-1.88.66-2.67.94.2.36.41.72.61,1.08.91.38,1.82.76,2.71,1.12-.7,1.21-1.65,2.32-2.01,3.61-.63,2.25-.98,4.6-1.27,6.94-.2,1.64-.65,3.59-.03,4.93,1.73,3.73,1.36,6.93-1.48,9.92,1.18,4.65,2.31,9.14,3.44,13.63-.18.05-.37.1-.55.15-.58-.75-1.15-1.49-1.99-2.58-1.5,4.86-1.94,9.26.23,13.57-.98.61-1.79,1.12-2.75,1.72,1.13,3.62,3.82,6.87,1.39,10.49,3.06,3.95,3.16,4.56,1.54,10.53-.63-.78-1.07-1.34-1.52-1.89-2.21,2.8-2.58,5.07-.79,6.02.99-.5,2.08-1.04,3.12-1.57,2.07,2.31,1.92,4.88,1.23,7.08-1.69,5.34-.8,10.75-.92,16.12-.07,3.26.14,6.52.24,10.34.91.31,2.42.84,4.55,1.58.39,2.55.82,5.4,1.05,6.91,1.59,4.61,2.78,8.07,3.96,11.52-2.72,1.75-3.32,4.06-2.21,6.33,1.01,2.07,2.76,3.77,4.18,5.63-.25.02-.51.04-.76.06v10.13c1.65.54,2.73.88,3.33,1.08-.02-5.96,5.13-7.73,7.55-11.11,1.98.16,3.43.27,5.81.46-.15-6.02,3.92-11.25,1.16-17.42-.36-.81-.17-2.09.17-2.99,1.03-2.75.42-5.35-.15-8.06-.51-2.43-.64-4.94-.94-7.47,5.37-3.18,11.78-1.95,16.18-6.53.8,2,1.43,3.6,2.44,6.15.98-1.89,1.88-2.85,1.9-3.82.04-2.85,1.09-5.21,2.65-7.44,3.08-4.39,4.32-9.14,2.63-13.5,1.37-2.72,3.02-4.68,3.28-6.81.47-3.96,2.07-6.32,6.21-6.72,1.48-6.86-.29-13.15-1.24-20.3-2.06,3.02-3.54,5.2-5.03,7.39-.23-.19-.46-.38-.69-.56,1.22-4.02,2.43-8.03,3.55-11.73,7.2.84,14.09,1.66,20.98,2.42,1.47.16,3-.12,4.43.19,3.61.8,7.18,1.81,11.75,3,.18.24,1.07,1.45,2.13,2.88-1.53,2.39-3.01,4.69-4.29,6.68-6.28-1.09-11.84-2.05-17.32-3-.72,3.09-2.36,6.49-2,9.65.34,2.93.31,5.21-1.11,7.72-.51.89-.11,2.32-.16,3.5-.06,1.34.03,2.71-.26,4-1.2,5.42-2.51,10.8-3.69,15.8,1.59,2.32,2.95,4.32,4.59,6.73,5.6-7.21,4.9-15.85,7.42-23.64.74.26,1.86.66,2.94,1.04.93-1.28,1.68-2.31,2.56-3.52.79,2.78.4,4.4-1.7,5.53-3.42,1.82-3.88,4.71-3.67,8.46,3.13-2.69,5.92-5.09,8.86-7.61.31.91.55,1.63,1.09,3.22.86-1.89,2.24-3.5,1.89-4.4-1.75-4.52,1.43-7.22,3.15-10.46.7-1.32,1.8-2.5,2.2-3.9,1.48-5.04,2.9-10.11,4.03-15.25.78-3.55,2.75-7.05.86-10.91-.28-.57.07-1.87.57-2.38,3.79-3.88,6.68-9.1,13.41-8.33,3.64.42,7.27-.46,9.95-3.65.59-.7,1.73-.91,2.63-1.33,3.16-3.22,6.56-6.23,9.38-9.73,2.8-3.47,5.64-7.19,7.26-11.31,1.39-3.52,1.01-7.76,1.52-11.66,1.37-10.53,2.28-21.16,4.33-31.55,3-15.26,6.75-30.36,10.35-45.49,1.81-7.61,1.94-16.22,9.14-19.75,8.46-1.39,15.77-2.59,23.17-3.81,1.63-2.54,6.67-2.21,5.15-8.03,2.72,1.43,4.52,2.38,6.49,3.41,1.31-1.21,2.49-2.3,3.36-3.1,5.73.89,11.42.06,16.05,3.84.39.32,1.28.05,1.93-.05,3.07-.49,5.47.61,7.57,2.94,1.1,1.23,2.47,2.3,3.89,3.12,2.69,1.54,4.36,3.5,4.11,6.92-.09,1.28.42,2.6.7,4.18,1.04-.66,1.76-1.12,2.9-1.85,2.13,5.63,6.62,10.2,4.35,16.67-1.42,4.03-.9,7.68,1.11,11.3,1.54,2.78,1.46,5.43-.46,8.16-.89,1.26-1.62,3.12-1.48,4.61.62,6.47,1.54,12.92,2.47,19.36.2,1.4.94,2.72,1.31,3.76,6.49-1.06,11.73-3.72,16.27-7.83.24-.22.58-.34.87-.51,8.98-5.12,18.01-10.18,26.93-15.41,2.86-1.68,5.7-2.6,8.97-1.95.26.05.58-.24.92-.39.15-.95.3-1.93.44-2.89,2.22-1.03,4.61-1.63,6.41-3.04,10.77-8.39,23.8-11.84,35.87-17.32,6.51-2.96,12.58-7.76,20.31-7.36.24.01.51-.37.75-.59,4.85-4.5,11.33-5.3,17.02-7.9,2.89-1.32,6.11-1.89,9.17-2.81.1.17.19.34.29.51l-3.67,3.25c.19.3.38.59.56.89,4.36-2.15,8.72-4.31,13.03-6.44,1.68.24,3.91,1.32,5.34.63,7.66-3.69,16.7-2.83,23.92-7.83.37-.26.96-.19,1.44-.27,5.34-.81,10.67-1.66,16.01-2.39,1.47-.2,2.98,0,4.47-.1,1.95-.12,3.93-.15,5.83-.58,3.28-.74,6.52-1.53,9.9-.35-3.47,1.16-7.01,1.84-10.54,2.53-8.63,1.68-17.28,3.24-25.86,5.1-5.61,1.22-11.13,2.92-16.7,4.36-3.25.84-4.79,1.7-6.59,4.28,4.97-1.5,9.34-3.12,13.83-4.11,5.42-1.19,10.59-4.25,16.54-2.33,1.18.38,2.93-1.04,4.41-1.68,3.17-1.37,5.89-4.56,9.99-1.82,1.03.69,3.79.21,4.68-.78,3.25-3.57,7.16-1.88,10.76-1.91,4.08-.03,4.99-.32,6.66-4.9,2.76-.22,5.73-.45,8.7-.68.05.39.1.77.15,1.16-1.97.38-3.93.75-5.9,1.13-.02.35-.03.7-.05,1.05,2.37.35,4.73.98,7.1.98,4.98,0,9.95-.49,14.93-.49,3.26,0,6.52.52,9.87.81v2.46c2.73-.4,5.15-.76,7.51-1.11.29-1.37.55-2.58,1.03-4.83,3.56,3.29,8.12,3,10.89,6.7,1.03,1.37,2.87,2.97,4.33,2.95,3.88-.03,5.1,2.67,6.49,5.38,1.08,2.1,2.04,4.28,2.97,6.46.85,1.99,1.58,4.02,2.05,5.24-2.54,4.26-4.19,8.1-6.78,11.07-2.65,3.04-2.57,6.9-4.13,10.19-.06.13.57.61.94.95,2.04,4.55,1.88,5.31-1.52,8.89-1.39,1.47-2.7,3.02-3.97,4.6-.25.31-.14.92-.21,1.5h2.98c.23,4.15-1.87,7.57-4.77,9.11-5.49,2.91-8.01,8.46-12.8,12.61,2.5,2.34,4.75,4.55,7.11,6.63,1.66,1.47,3.61,1.63,5.61.75,7.16-3.16,14.33-6.29,21.45-9.55,3.16-1.45,6.23-2.55,9.78-3.12,5.95-.96,11.66-3.56,17.47-5.47.45-.15.9-.27,1.43-.42-.11,1.18-.21,2.25-.35,3.78,2.87-1.17,5.25-2.14,8.16-3.32-.36,1.59-.58,2.56-.71,3.14,2.52.5,4.66.92,6.79,1.34-.1.7-.2,1.4-.33,2.3,1.88-.45,3.27-.79,5.19-1.25-1.22,1.61-2.08,2.75-3.53,4.66,4.05-1.67,7.05-2.92,10.03-4.15-1.14,1.61-2.3,3.25-4.1,5.81,4.67-2.42,8.34-4.33,12.02-6.24.17.34.35.69.52,1.03-2.11,1.22-4.32,2.29-6.31,3.7-2.34,1.66-4.98,2.7-5.65,6.51-.44,2.46-3.01,4.85-5.14,6.6-4.65,3.8-9.65,7.15-14.48,10.72-.52.39-.83,1.06-1.31,1.53-2.44,2.4-1.71,5.58-2.04,8.6.59.09,1.19.18,1.78.27-.11.71-.22,1.42-.47,3.04,9.53-6.14,18.24-11.97,27.9-15.98-1.13,1.35-2.43,2.4-3.81,3.33-5.15,3.46-10.37,6.81-15.47,10.34-4.54,3.15-8.69,7.04-13.51,9.59-4.44,2.35-5.04,7.33-8.29,10.33-.43.4-.13,1.99.23,2.85.63,1.52,1.58,2.9,2.39,4.34.17-.32.34-.64.51-.96,6.37.83,12.87,1.13,19.08,2.65,4.67,1.14,7.98-.33,11.48-2.87,2.1-1.53,4.46-2.67,7.48-4.44.76,3.98,1.35,7.06,2.06,10.81,2.65.59,5.59,1.01,8.37,1.93,2.14.71,3.52-.07,4.89-1.47,2.09,1.37,3.12.41,3.94-2.11-.91.05-1.47.09-2.03.12.83-2.62,1.76-5.17,3.99-6.41.55,2.42,1.11,4.88,1.94,8.58,1.84-1.72,3.32-2.44,3.71-3.57,1.56-4.57,2.79-9.26,4.37-14.69-.06-.11-.52-.94-1.28-2.29,3.45-3.11,6.76-6.41,10.44-9.21.95-.72,3.6-.48,4.5.38,2.97,2.84,5.37,1.86,7.99-.09,3.4-.26,6.78-.81,10.01-1.83,2.04-.64,3.8-2.16,5.81-2.93,1.18-.45,2.62-.21,4.73-.31-.87,4.08-1.33,7.28-2.26,10.31-.98,3.19-2.41,6.22-3.63,9.3,5.91,3.02,10.72,2.61,13.83-1.06,3.15-3.72,6.27-7.45,9.36-11.12,3.16-.11,6.98,2.1,7.9-2.26,6.53-.83,12.89-1.05,18.91-2.63,3.48-.92,6.44-1.95,9.69.07.02.01.35-.49.56-.79-1.37-1.18-2.75-2.36-4.13-3.55.24-.41.48-.82.72-1.23,3.45,1.75,6.9,3.51,11.86,6.03,3.73,7.05,4.79,16.58,6.75,25.84,2.69,2.44,4.49-.97,7.08-1.18.95,1.39,4.21.82,3.57,4.36-1.7-.56-3.12-1.03-4.75-1.58,1.27,4.35,2.41,8.25,3.58,12.25,3.26-1.52,4.68-.04,6.11,2.25,2.85,4.54,5.55,4.51,8.78.19.48-.64.85-1.37,1.43-2.32-1.97-.91-3.67-1.68-5.54-2.54,1.42-2.53,3.6-2.2,5.06-1.78,7.42,2.11,14.05,5.64,18.55,12.77.19,2.57.4,5.55.6,8.26,2.32.62,4.22,1.12,6.09,1.62-.58,1.98-1.06,3.67-1.64,5.66,1.93.37,3.32.64,5.02.97-1.37,1.68-2.5,3.06-4.42,5.41,3.11.18,5.21.3,7.52.43-.51-1.98-2.16-3.79,1-5.21.93,2.82,1.45,6.11,4.99,6.73,3.76-.82,1.9-4.7,3.16-7.12,3.3,4.75,5.34,5.35,10.38,3.58,3.44-1.21,7.03-2.02,10.37-3.44,4.42-1.88,9.02-3.54,11.6-8.35,3.43-6.4,8-12.01,11.28-18.61,8.18-16.43,15.24-33.19,18.56-50.98,2.85-1.95,5.3-3.63,7.94-5.43.97.22,2.09.7,3.22.68,4.02-.05,7.85.15,11.33,2.81,1.79,1.37,3.83.38,5.47-1.03.72-.62,1.43-1.26,2.52-2.24,2.67,1.87,5.21,3.65,7.42,5.19-.53,2.58-.94,4.6-1.33,6.52,1.54.32,2.63.54,4.04.83-.68,1.53-1.2,2.7-1.87,4.21,1.77.25,3.21.45,4.8.67-.45.77-.83,1.41-1.3,2.22,3.24,1.35,6.36,2.65,9.82,4.09-1.17,1.99-2.01,3.87-3.24,5.43-9.09,11.55-13.67,25.4-18.56,39.02-2.59,7.21-4.1,14.83-6.05,22.29-.38,1.46-.9,3.07-.67,4.49.84,5.18,1.98,10.31,2.99,15.37-1.39,2.24-2.2,5.05-3.98,6.1-4.01,2.36-4.65,6.14-5.01,10.01-1.28,13.81-2.68,27.63-3.34,41.48-.39,8.18.53,16.42.91,24.63.03.56.43,1.1,1.06,2.64,1.89-3.62,3.72-6.27,4.7-9.22,1.24-3.77,3.68-4.79,7.14-5.04,1.87-.13,4.08-.53,5.44-1.68,2.39-2.01,4.55-2.43,7.32-1.21,2.64,1.17,5.4,1.69,7.97-.07,2.57-8.8,6.58-11.62,14.32-10.17.53,1,1.08,2.01,1.58,2.95,1.62-.29,2.97-.54,4.35-.78.5,2.02.91,3.66,1.47,5.9,2.93-2.94,1.77-6.03,2.16-8.73,1.06-.25,2.08-.49,2.88-.68.22-4.75.42-9.12.61-13.4,1.03-.26,1.78-.45,2.24-.57.58-3.43,1.08-6.47,1.59-9.5,2.93-2.78,3.15-6.43,3.6-11.13-1.52,1.49-2.31,2.27-3.1,3.05,1.14-3.3,2.28-6.6,3.62-10.49-1.06.48-1.61.7-2.14.98-.47.25-.91.56-1.36.85,3.63-6.57-1.99-11.07-2.98-17.03,1.3-1.72,2.86-3.79,4.23-5.61,3.9,3.31,7.29,6.19,11.08,9.4.54-1.37.83-2.1,1.11-2.8,1.38.75,2.24,2.69,4.49,1.38,1.61-.94,3.67-1.07,5.53-1.56ZM1479.66,25.88c-.04.05.43.68.55.65.38-.11.72-.42,1.09-.66-.33-.41-.52-.66-.72-.9-.32.3-.67.57-.92.91ZM939.1,3.48c.78,1.38,1.57,2.8,2.85,5.07.34-3.67-1.11-4.52-2.85-5.07ZM190.13,96.2c-.74-3.05-1.96-2.6-3.22-1.92.85.51,1.71,1.02,3.22,1.92Zm1641.41,209.4l.83.37c.28-.71.57-1.42.85-2.13-.26-.11-.51-.23-.77-.34-.3.7-.61,1.4-.91,2.11Zm-12.55,10.75c1.18,3.53,1.85,6.23,4.69,7.86q.35-5.44-4.69-7.86Zm.14,16.05c1.23-.92,2.52-1.87,4.19-3.11-1.98-2.6-3.73-4.91-5.56-7.31-3.58,4.5-3.31,6.25,1.37,10.43Zm-6.14,6.04q2.71-3.38.68-6.66c-.25,2.43-.42,4.06-.68,6.66Zm-5.15-17.16c-.95,2.68-1.89,5.07.23,7.45,2.57-3.34,2.54-3.82-.23-7.45Zm.25,7.66c.05,1.21.11,2.42.18,3.87,2.2-1.77,1.18-2.84-.18-3.87Zm-2.98-22.36c.19,1.04.38,2.08.57,3.13.35,0,.71,0,1.06,0,.08-.64.34-1.33.17-1.89-.18-.59-.76-1.05-1.17-1.57-.21.12-.42.23-.63.35Zm-20.02-67.63c.8,3.03,3,3.04,5.7,1.89l-5.7-1.89Zm-12.33,31.54l2.56.91c.12-.44.25-.88.37-1.32-.9-.2-1.8-.39-2.69-.59-.08.33-.16.67-.24,1Zm-50.65,9.62c.89.7,1.78,1.4,2.67,2.1.22-.46.44-.92.67-1.38-1.11-.24-2.22-.48-3.33-.72Zm-52-132.39c.38-.04.76-.07,1.14-.11-.1-.77-.2-1.53-.29-2.3l-.73.04c-.04.79-.07,1.58-.11,2.37Zm-44.17,169.37l10.87,1.53c.03-.38.05-.76.08-1.13-3.65-.13-7.3-.27-10.95-.4Zm-28.31-161.23c.22.1.44.2.67.3l1.06-1.83c-.32-.15-.64-.3-.96-.45-.26.66-.51,1.32-.77,1.98Zm-141.01-135.15c-2.04-.7-3.99-1.36-5.93-2.03.09-.33.18-.66.27-1,1.68.11,3.36.23,5.05.34-3.61-.5-6.84-1.74-10.71.53-3.31,1.95-8.1,1.64-11.78-1.56-9.08,4.71-19.55,3.4-28.73,7.3.05.38.1.75.15,1.13,1.01.38,2.03.76,3.1,1.16-.83,1.56-1.51,2.86-2.54,4.81,2.51.99,4.67,1.85,6.61,2.61-.18.24-.47.62-1.39,1.84,3.9-.51,6.74-.89,9.59-1.26.02.16.04.32.06.48-3.29,1.03-6.59,2.05-10.06,3.13.4,5.43-4.06,6.27-7.62,8.8,2.98,1.84,5.45,3.37,7.71,4.77,15.54-6.92,27.53-14.91,28.9-19.16,5.28-.93,11.6-5.24,17.31-11.9Zm-96.77,104.64c-.89,3.7-1.69,7.02-2.54,10.59,5.21.75,9.47,1.16,14.02-.21,7.11-2.14,13.83,2.24,20.94,2.45,2.44.07,4.42.26,6.42-1.16,4.51-3.19,9.06-6.31,13.53-9.57,1.42-1.04,2.63-2.4,3.87-3.55-.93-1.91-1.56-3.31-2.27-4.65-2.57-4.82-5.93-5.86-10.8-3.34-1.78.92-3.65,1.74-5.28,2.9-5.46,3.89-11.96,4.21-18.25,5.58,1.74-1.52,3.48-3.03,5.32-4.64-.24-1.18-.47-2.29-.67-3.22,1.83-2.57,3.53-4.95,5.77-8.08-6.06.13-8.88,6.54-14.28,4.37-.3,4.73-3.25,7.99-7.09,7.51-4.8-.6-8.68.87-12.06,4.19-.17.17-.11.59-.14.83h3.51Zm54.85-105.9c.54-.16,1.08-.31,1.62-.47-.06-.29-.12-.57-.19-.86-.55.25-1.1.5-1.65.75.07.19.14.38.22.58Zm-10.14-7.38c-1.02,2.17-1.65,3.51-2.27,4.83,3.26-.29,6.56-.39,9.78-.93,14.83-2.5,29.75-2.42,44.77-2.63-6.64-.62-13.29-1.25-19.97-1.87-.12-1.58-.24-3.18-.41-5.45-2.92.71-5.61,1.31-8.27,2.02-1.71.46-3.34,1.36-5.07,1.61-6.38.93-12.79,1.68-18.57,2.42Zm-9.94,3.39c1.92-.22,3.46-.4,4.79-.56,1.21-1.77,2.22-3.26,3.55-5.21-3.6.85-6.81,1.3-8.34,5.77Zm-40.39,6.89c-.67,2.13-1.09,3.44-1.7,5.38,4.07-1.38,7.77-2.71,11.52-3.87,3.96-1.23,7.99-2.22,11.95-3.44,3.57-1.1,7.67-.76,11.59-4.39-3.06.44-5.44,1.6-6.84.83-3.83-2.08-7.04.02-10.81.46.08.92.15,1.65.25,2.83-1.31-.2-2.51-.38-3.15-.48-2.06.85-3.29,1.63-4.6,1.84-2.86.45-5.77.61-8.21.84Zm-2.25-3.09c.11.34.21.68.32,1.02,1.79-.58,3.57-1.16,5.36-1.75l-.28-.89c-1.8.54-3.59,1.08-5.39,1.61Zm-6.83,9.76s.36.42.7.8c.29-.41.59-.72.74-1.09.04-.09-.49-.59-.55-.55-.34.21-.64.51-.88.84Zm-7.3,6.53c.08.17.16.34.24.51,2.24-.22,4.48-.45,6.73-.67-.47.69-.95,1.37-1.42,2.06,4.36-1.31,8.7-2.67,13.08-3.89,2.53-.7,5.17-1,7.69-1.75,5.23-1.55,10.39-3.32,15.61-4.9,3.43-1.04,6.9-1.9,10.54-2.89-.64-1.33-.98-2.05-1.49-3.11,2.19-.64,4.24-1.22,6.28-1.83,2.28-.68,4.54-1.39,6.81-2.09-1.53-.09-3.1-.39-4.56-.11-3.4.64-6.72,1.71-10.1,2.43-11.51,2.42-22.61,6.33-33.75,10.07-2.98,1-5.99,1.95-8.92,3.1-2.29.9-4.49,2.05-6.73,3.1Zm1.21,2.33c.08.38.15.76.23,1.14,1.18-.46,2.37-.92,3.55-1.39-1.26.08-2.52.16-3.77.24Zm-4.49-5.28c-.02.08.61.45.66.4.29-.31.5-.7.73-1.06-.24-.14-.49-.28-.88-.5-.19.4-.41.76-.51,1.17Zm-3.54-10.12c.09.22.19.44.28.66.64-.27,1.27-.53,1.91-.8-.1-.24-.2-.49-.31-.73-.63.29-1.25.58-1.88.87Zm-5.85,2.45l.34.4c.44-.38.89-.75,1.33-1.13-.12-.15-.24-.29-.36-.44-.43.39-.87.78-1.3,1.17Zm-12.14,6.2s.02.03.03.05c1.39-.76,2.81-1.54,4.92-2.7-3.17-.61-5.25-1.05-4.95,2.65Zm.1.16c1.08,1.72,1.15,1.7,3.28.46-1.38-.19-2.35-.33-3.28-.46Zm-13.72-2.06c.04.35.54.65.84.97.37-.42.73-.85,1.1-1.27-.35-.26-.69-.52-1.17-.88-.33.47-.8.85-.77,1.17Zm-3.8,73.26c-.2-.06-.76.3-.74.43.04.39.23,1.05.44,1.09.35.06.77-.28,1.48-.6-.55-.44-.83-.8-1.18-.92Zm-4.34-53.99c.2.35.39.7.59,1.05,1.21-.68,2.42-1.36,3.63-2.05-.24-.42-.47-.83-.71-1.25-1.17.75-2.34,1.5-3.51,2.25Zm-8.58,55.32c1.59,1.42,2.87,2.57,4.24,3.79,1.22-.99,2.24-1.81,3.26-2.62-.1-.39-.2-.78-.31-1.17h-7.19Zm-43.96,11.11c.16.46.33.91.49,1.37,6.8-2.58,13.6-5.17,20.4-7.75l-.43-1.19c-7.23,1.39-13.9,4.33-20.47,7.57Zm-7.74,3.73c.15.3.3.59.45.89,1.2-.54,2.41-1.09,3.61-1.63-.19-.42-.38-.84-.56-1.26-1.17.67-2.33,1.34-3.5,2.01Zm-42.14,24.28c.5,5.29,1,10.69,1.55,16.56,1.3.14,2.15.43,2.92.28,6.48-1.27,12.95-2.65,19.42-3.95,8.91-1.79,17.82-3.55,26.75-5.28,5.7-1.1,11.42-2.99,17.12-2.94,6.31.06,11.23-2.43,16.03-5.82,7.81-5.52,15.46-11.3,23.27-16.83,3.68-2.61,8.06-4.37,11.25-7.47,3.66-3.55,7.16-7.23,11.27-10.24,1.12-.82,2.02-1.97,3.03-2.97-8.6.3-16.64,1.45-24.57,4.05-9.45,3.1-19.21,5.17-28.85,7.67-.59.15-1.22.11-1.84.15-.07-.27-.14-.54-.22-.81,4.17-1.77,8.34-3.54,12.73-5.41-.94-.88-1.77-1.65-2.47-2.3-6.03,1.28-11.78,2.5-17.64,3.74.56,1.54.89,2.43,1.51,4.12-2.52.14-4.57.21-6.61.37-2.41.19-4.87.23-7.22.73-2.58.56-5.07,1.56-7.59,2.42-.24.08-.37.52-.55.8.42.65.85,1.31,1,1.53-5.29,7.04-14.29,3.71-20.71,8.27-.74-.58-1.63-1.27-2.21-1.73-9.81,2.04-16.45,9.48-24.91,13.38-.74.34-1.37.92-2.46,1.66Zm63.17,69.3c-.28-1.96-.47-3.3-.66-4.63-.81,1.34-1.91,2.7.66,4.63Zm-37.5,4.34c-.34.28-.68.56-1.02.83,1.17,1.65,2.35,3.31,3.52,4.96.31-.22.62-.45.93-.67-1.14-1.71-2.29-3.42-3.43-5.13Zm-7.25-16.11c1,2.57.96,5.43,4.27,7.3.07-5.99-.34-6.67-4.27-7.3Zm-21.08-52.38c.29,0,.59,0,.88,0v-3.29c-.29,0-.59,0-.88,0v3.29Zm-.03,4.05c.29,2.4.58,4.79.87,7.19.43-.03.86-.06,1.3-.09l-.93-7.28c-.41.06-.83.12-1.24.18Zm-9.78-86.74c.73,5.38,1.28,10.78,1.98,16.16.23,1.75.72,3.46,1.07,5.05,2.85.02,3.52-1.18,3.28-3.27-.32-2.7-.43-5.43-.83-8.12-.68-4.64-1.52-9.26-2.3-13.98-3.33.11-3.51,1.83-3.2,4.16Zm-2.1,14.91c.33,1.93.67,3.87,1,5.8.24,0,.49,0,.73,0-.29-1.99-.58-3.97-.87-5.96-.29.05-.57.1-.86.15Zm-11.75,102.36c-.22.77-.44,1.54-.66,2.32.5.14.74.2,1.16.31.12-.84.24-1.65.35-2.46l-.85-.18Zm-1.62-13.58c.29.03.57.05.86.07.1-1.01.19-2.02.28-3.03-.29-.02-.57-.05-.86-.07-.1,1.01-.19,2.02-.29,3.03Zm-40.7-9.97c.12.8.25,1.6.37,2.4.29-.02.59-.04.88-.07v-2.46c-.42.04-.84.09-1.26.13Zm-1.32,14.28c.38.69.75,1.37,1.13,2.06.2-.07.4-.13.61-.2,0-.43.14-.95-.04-1.28-.23-.43-.73-.73-1.11-1.08-.2.17-.39.34-.59.5Zm-1.25,8.18c.37-.18.74-.37,1.11-.55-.57-1.13-1.15-2.27-1.72-3.4-.39,1.61-.6,3.13.61,3.95Zm-56.58-40.08v2.82c1.53-1.54,1.56-1.59,0-2.82Zm-31.74,219.33c4.8-3.34,6.51-6.48,6.03-10.18-2.19,3.7-4.11,6.94-6.03,10.18Zm-35.69-19.38c.36.21.7.48,1.09.6.11.03.35-.36.53-.57l-1.21-.86c-.14.27-.27.55-.41.82Zm-12.21-4.87c.39-.01.79-.02,1.18-.03-.14-.84-.28-1.69-.42-2.53l-.76.09v2.48Zm-.22,10.71c.34,0,.67-.02,1.01-.03-.15-.72-.31-1.43-.46-2.15-.18.03-.36.06-.54.08v2.09Zm-57.06-221.11c.25.08.5.16.75.24.21-.67.42-1.34.63-2-.25-.08-.51-.16-.76-.25-.2.67-.41,1.34-.61,2.01Zm-10.58,67.44v-4.59c-1.59,1.21-2.8,2.16,0,4.59Zm-8.19-15.21c.58.05,1.15.1,1.73.15.12-1.38.25-2.75.37-4.13-.54-.05-1.08-.1-1.62-.16-.16,1.38-.32,2.76-.48,4.14Zm-5.99-14.51c.13,2.69,1.5,3.92,5.62,3.06-4.71-3.27-1.09-8.51-3.96-11.94-.56.11-1.12.22-1.68.33,0,2.85-.1,5.7.03,8.54Zm2.77,62.37c.52.71,1.03,1.42,1.55,2.13.25-.09.51-.19.76-.28,0-.55.21-1.3-.05-1.6-.41-.46-1.15-.62-1.75-.91-.17.22-.35.44-.52.66Zm.16-13.71v-2.9h-.85v2.91h.85Zm-4.93-127.24c.44-.04.88-.07,1.32-.11-.19-2.57-.38-5.15-.57-7.72-3.88,2.92,1.37,4.97-.75,7.83Zm-4.21-4.68c.2.06.4.12.6.18.56-1.57,1.12-3.14,1.68-4.71-.35-.15-.7-.3-1.05-.45-.41,1.66-.82,3.32-1.23,4.98Zm-4.89,8.34c2.4,5.17,2.18,10.35.11,15.61-.55,1.4-.66,2.99-.9,4.51-.42,2.64.61,9.73,2.01,12.68,2.36-10.53,5.59-20.29,4.49-31.01-2.13-.67-3.93-1.24-5.72-1.8Zm2.69,133.52c-.27-.26-.85-.17-1.5-.28-.12,1.47-.23,2.75-.42,5.02,2.89-1.63,3.95-2.79,1.92-4.73Zm-2.26-150.83c-.52,2.27-1.04,4.55-1.56,6.82,2.19-1.86,1.44-4.45,1.56-6.82Zm-4.23,17.13h3.5c-2.47-3.01-.65-6.51-.96-9.76-.83,3.19-1.66,6.38-2.54,9.76Zm1.37,48.85c.36.05.73.09,1.09.14.75-3.14,1.5-6.28,2.15-9.01-1.65-2.04-2.85-3.52-4.43-5.46-2.42,5.49-.12,9.85,1.2,14.33Zm-77.73,112.48c.23,4.98,2.45,7.85,4.3,10.84.12.2,1.14-.18,1.7-.28v-7.2c-1.02.32-1.77.56-2.73.86-.85-1.1-1.71-2.21-3.27-4.22Zm-17.11,40.46c.31.94.62,1.87.94,2.81.33-.11.66-.21.99-.32-.21-.94-.43-1.88-.64-2.81-.43.11-.85.21-1.28.32Zm-6.66-13.43c.24.75.49,1.49.73,2.24.29-.09.58-.18.87-.26-.11-.74-.22-1.48-.32-2.22-.42.08-.85.16-1.27.24Zm-16.84-7.6c-.79.32-1.48.6-2.35.96,1.75,1.92,3.36,3.69,4.98,5.46.36-.08.71-.16,1.07-.24.23-3.06.46-6.11.69-9.23h2.74c-2.24-3.96-4.24-7.5-6.19-10.95-2.81,4.38-1.34,9.26-.93,14Zm4.24,21.15c-1.39,5.29-1.01,7.38,1.39,9.44,1.35-3.5.51-6.54-1.39-9.44Zm-10.16-20.11c.34,2.13.68,4.25,1.07,6.76.89.79,2.08,1.83,3.27,2.88.23-.15.46-.3.68-.45-1.48-3.24-2.95-6.49-4.43-9.73-.2.18-.4.36-.6.54Zm-1.99,14.26c.3.46.59.91.89,1.37.19-.13.38-.26.58-.39-.28-.46-.57-.93-.85-1.39-.2.14-.41.27-.61.41Zm-.73,13.6c.76,1.9,1.52,3.79,2.66,6.65q.83-3.65-2.66-6.65Zm-12.77-32.79c-.07,3.32,2.64,3.4,4.56,3.97q2.48,5.75-.66,7.83c1.87,3.62,4.19,6.84,6.93,9.64.52-3.44,1.11-6.48,1.4-9.55.16-1.62,0-3.33-.35-4.92-1.05-4.87-5.76-6.71-8-10.45-2.32.3-3.85,1.07-3.89,3.48Zm-126-114.08c-.09-1.19-.15-2.05-.21-2.89-1.51,1.36-1.48,1.41.21,2.89Zm-72.13,217.13c8.3-2.33,16.6-4.64,24.87-7.06.76-.22,1.33-1.06,1.96-1.7-7.17,2.11-14.35,4.15-21.49,6.37-1.85.58-3.59,1.53-5.35,2.38Zm-7.35.9c.09.47.19.94.28,1.41,1.91-.63,3.83-1.27,5.74-1.9-2.01.17-4.01.33-6.02.5Zm-42.14-259.07c.09,0,.17-.02.26-.03v-5.31l-.26.03v5.31Zm-1.31,67.24c-1.21,2.5-1.69,4.95.52,7.14-.17-2.38-.35-4.76-.52-7.14Zm-.84-7.75c-.42.1-.83.21-1.25.31.28,1.09.56,2.18.84,3.27.35-.09.69-.18,1.04-.26-.21-1.11-.42-2.22-.63-3.32Zm-4.89-60.6c.04,2.15,1.73,2.56,4,1.9,0-1.58.03-3.07,0-4.56-.13-5.46-.3-10.91-.43-16.37-.05-2.01.24-4.23-2.59-4.3-.42.39-.87.61-.87.84-.09,7.5-.24,14.99-.11,22.49Zm-1.9-39.31v-1.76c-.36,0-.71.02-1.07.03.14.61.29,1.23.43,1.85.21-.04.42-.07.64-.11Zm-45.21,80.37c1.14.34,2.28.67,3.41,1.01.1-.38.2-.76.3-1.14-1.15-.29-2.3-.58-3.45-.87-.09.33-.18.67-.26,1Zm-24.97-6.36c7.6,3.16,18.1,5.07,21.53,4.03-7.62-2.19-14.39-4.26-21.53-4.03Zm-31.89,1.38c1.65.87,2.9,1.54,4.27,2.26,1.05-1.5,1.92-2.75,3.09-4.43-2.71.45-5.27-.56-7.36,2.17Zm-5.87-1.24c.06.39.21.99.47,1.08.33.12.79-.19,1.53-.41-.57-.51-.85-.89-1.22-1.04-.19-.08-.79.28-.77.37Zm-7.73-54.83c2.21.71,3.53,1.14,4.86,1.57l.32-1c-1.32-.43-2.16-2.37-5.18-.57Zm-7.19-17.02c-.02.14.53.55.69.49.37-.14.66-.5.98-.76-.3-.28-.6-.56-1.09-1.01-.27.55-.53.91-.58,1.29Zm-9.64,76.98c1.13,1.37,2.33,2.2,3.59,2.91,4.13,2.35,8.32,4.57,11.77,8.02,1.14,1.15,2.84,1.74,4.33,2.48,10.46,5.2,21.01,10.21,31.36,15.63,4.04,2.12,7.99,4.27,12.54,4.65,2.58.21,5.2-.32,7.8-.25,4.78.12,9.57.37,14.34.68,4.8.31,9.59.83,14.39,1.11,5.46.31,10.93.54,16.4.63,6.58.11,13.17.03,20.23.03,0-4.45-.19-8.72.06-12.98.19-3.26-1.48-4.64-4.03-5.61-2.6-.98-5.18-2.02-7.77-3.03-4.79-1.87-9.61-3.67-14.36-5.65-2.53-1.05-4.41-.28-5.47,1.31-2.58-.59-4.78-1.83-6.55-1.37-5.63,1.46-10.22-1.36-15.27-2.71.44-1.12.76-1.94,1.21-3.08-1.54-.17-2.71-.14-3.79-.45-4.53-1.31-8.98-2.15-13.62-.27-1.37.55-3.12.08-4.82.08.17-1.66.27-2.69.4-4.08-6.16-.37-11.9-.72-17.89-1.08-.49.8-1.06,1.73-1.57,2.57,4.35,1.2,8.4,2.32,12.45,3.44-1.37.93-2.66,1.19-3.89,1.04-12.26-1.51-24.51-3.16-36.78-4.63-5-.6-9.99-.01-15.07.61Zm85.4,198c2.48.6,2.99-.93,3.47-2.49-1.16.83-2.31,1.66-3.47,2.49Zm-70.59-30.57c.19.33.37.65.56.98,2.51-.25,4.8-.83,5.52-3.87-2.03.96-4.06,1.93-6.09,2.89Zm-21.75-242.17c2.4.13,3.81.2,5.21.27-1.34-1.71-2.82-2.6-5.21-.27Zm-22.75,5.25c2.56.26,5.12.51,7.67.77.03-.31.07-.63.1-.94-2.57-.37-5.14-.75-7.71-1.12-.02.43-.04.86-.06,1.29Zm-6.21-1.47c.46.2.92.43,1.4.56.05.01.25-.51.37-.79-.5-.17-1-.34-1.5-.52-.09.25-.18.49-.27.74Zm-11.6-8.44c1.95.26,3.9.52,5.86.77.04-.36.08-.73.11-1.09-1.96-.18-3.92-.37-5.88-.55-.03.29-.06.58-.09.87Zm-29.1,3.05c11.53,1.58,23.05,3.16,35.3,4.84-1.22-1.86-2.02-3.08-3.11-4.74-2.44,0-5.04.06-7.64-.02-2.47-.07-4.95-.29-7.46-.45-.17-.55-.37-1.18-.52-1.67-5.82-2.58-11.01.97-16.52.95-.02.36-.04.73-.06,1.09Zm-5.94,2.32c1.25.6,2.51,1.21,3.83,1.84v2.68c17.63,2.48,34.95,4.92,52.27,7.36-.36-.79-.88-1.17-1.44-1.27-9.46-1.75-18.93-3.44-28.38-5.2-1.71-.32-3.39-.82-5.08-1.26,9.76.34,19.32,1.98,28.8,4.37,2.1.53,4.32.53,6.49.78-1.76-1.43-3.62-2.15-5.53-2.56-8.71-1.88-17.4-3.92-26.17-5.42-5.54-.95-11.2-1.14-16.83-1.48-2.64-.16-5.3.08-7.95.17Zm-7.23,102.63c-.52,1.41-.85,2.9-1.3,4.47.71.68,1.22,1.41,1.91,1.78,6.05,3.2,12.11,6.38,18.23,9.43.96.48,2.35.6,3.37.29,4.24-1.3,8.35-3.12,12.64-4.2,3.8-.95,7.78-1.62,11.68-1.59,3.91.03,7.52-.51,11.74-2.38-1.26-3.39-2.45-6.6-3.72-10.03,1.21-.19,2.24-.36,3.57-.57-3.86-3.53-7.99-4.23-12.61-3.25-4.49.96-7.23-1.04-8.59-6.62-1.48.61-2.6,1.07-3.55,1.47-3.45-1.38-6.36-3.85-10.57-3.28,1.56,4.22,7.6,5.15,6.16,10.48,2.09,1.41,3.94,2.66,6.76,4.55-8.05-.9-14.98-1.18-21.4-4.32-1.19-.58-2.48-.98-3.74-1.41-5.44-1.85-8.56-.33-10.58,5.18Zm6.57-102.76c-2.9-1.41-5.84-2.22-8.94-.56,2.98.19,5.96.37,8.94.56Zm-9.37-7.95q3.53,5.65,8.5,3.53c-3.35-1.39-5.92-2.46-8.5-3.53Zm-48.54,11.07c1.33.28,2.65.39,3.88.1,10.24-2.41,20.64-3.08,31.1-3.26,4.58-.08,9.16-.33,13.75-.51-.76-1.26-1.52-2.53-2.57-4.29-5.51,0-11.28.02-17.05-.01-1.97-.01-4.28.5-5.85-.36-3.31-1.82-6.42-.88-9.72-.68.19,1.84.35,3.45.5,4.96-4.56,2.36-9.99.55-14.04,4.05Zm35.69,0c.35.19.69.39,1.04.58.06-.29.12-.59.17-.88-.41.1-.81.2-1.22.3Zm9.8,32.17c2.23-1.92,4.43-3.81,7.07-6.08-3.99-2.04-8.46-2.27-8.66-7.42-2.55-.56-4.79-1.04-7.19-1.57,2.15-.35,4.16-.67,6.22-1.01-.19-.81-.23-1.12-.34-1.4-.02-.04-.06-.07-.11-.1,1.73-1.37,3.24-2.57,4.82-3.82-1.09-1.74-1.82-2.93-2.57-4.14,1.28-.7,2.2-1.2,4.21-2.3-2.91-.62-4.62-1.2-6.37-1.32-6.61-.44-13.23-.73-19.84-1.07-2.93-.15-5.83-.72-8.48,1.56-.98.84-2.86.83-4.32.76-3.07-.14-6.13-.58-9.37-.91,1.3,4.62-4.18,2.12-4.78,5.65,16.01,8.88,32.02,17.58,49.72,23.15Zm-48.69,137.4c.43,1.07,1.02,1.66,1.68,1.77.48.08,1.08-.46,1.62-.72,0-.35,0-.7,0-1.05h-3.3Zm-196.59-7.14c.2.84.41,1.67.61,2.51.29-.06.57-.11.86-.17-.11-.79-.22-1.59-.33-2.38-.38.01-.76.03-1.14.04Zm968.7,135.23c.43-.14.86-.29,1.29-.43-.4-1.15-.81-2.31-1.21-3.46-.4.13-.81.27-1.21.4l1.13,3.49ZM1344.91,35.27s-.06.08-.09.12c.06,0,.11-.01.17-.02l-.09-.11ZM198.15,117.68h.08s.02-.08.04-.12l-.12.12Zm-27.38,103.67c-3.9.11-5.12-4.51-9.1-3.7,1.44,5.51,3.88,6.59,9.1,3.7Zm124.32-141.83c.2,0,.39.02.59.03-.17-.05-.34-.09-.52-.14l-.08.11Zm1178.87-28.73s0,0,0,0c.02.02.05.05.07.07l-.08-.08Zm-805.42,141.5s.07.06.1.08c0-.06-.01-.11-.01-.17l-.09.09Zm873.4-109.63c-.04.06-.08.12-.13.18.07-.03.14-.06.21-.09l-.08-.09Zm367.98,133.08s.04.03.07.04c.02-.05.04-.1.06-.15l-.13.11Zm-969.8-12.94c3.85-2.39,3.49-5.16,3.49-8.41-3.93,1.71-3.25,4.64-3.49,8.41Zm-2.86,15.87c1.02-2.05,1.81-3.63,2.6-5.21-2.84,1.98-2.82,1.98-2.6,5.21Z"/></svg>